<svg xmlns="http://www.w3.org/2000/svg" viewBox="0 0 279.49 103.33"><title>Asset 1</title><path d="M19,101.74l-1.17-4.1,2.43-.36L14.88,78.13l-2.54.37-1.17-4.1q5.94-.88,11.9-1.67c4.36-.58,8-.22,10.74,1a8.47,8.47,0,0,1,5.1,6.07c1.27,5.75-2.68,9.12-11.83,10.33l1.54,5.94,2.93-.39,1,4.12Q25.75,100.74,19,101.74Zm4.68-24.83L26,86.06q2.8-.37,3.5-1.71a5,5,0,0,0,.16-3.52C28.92,77.79,26.91,76.48,23.64,76.91Z"/><path d="M17.93,103.33l-2-6.86,2.44-.36-4.58-16.4-2.54.37-2-6.86L11,73c4-.59,8-1.15,11.92-1.67,4.6-.61,8.47-.22,11.51,1.16a9.87,9.87,0,0,1,5.9,7.05,8.21,8.21,0,0,1-1.08,6.74c-1.76,2.52-5.16,4.19-10.36,5.08l.83,3.2,2.94-.38,1.73,6.9-1.59.21c-4.49.58-9.06,1.22-13.59,1.89Zm1.67-4.52.38,1.34c3.6-.53,7.23-1,10.82-1.5l-.34-1.34-2.92.39L25.29,89l1.59-.21c5.2-.69,8.56-2.08,10-4.13a5.42,5.42,0,0,0,.64-4.49,7.07,7.07,0,0,0-4.3-5.08c-2.55-1.16-5.9-1.47-10-.93-3.38.45-6.83.93-10.28,1.43l.38,1.34,2.55-.37L22,98.46Zm5.34-11.18L21.86,75.71l1.59-.21c4-.53,6.67,1.24,7.59,5A6.36,6.36,0,0,1,30.76,85c-.7,1.34-2.19,2.15-4.57,2.47Zm.52-9.35L27,84.4c.89-.27,1.14-.59,1.2-.71a3.71,3.71,0,0,0,0-2.53C27.85,79.39,27,78.48,25.46,78.29Z"/><path d="M49.91,97.79,49,93.65l3.13-.33L48.29,74,45,74.33l-.86-4.14q8.16-.88,16.35-1.61l.71,4.16-4.1.37,3.51,19.37L66.5,92l-1.38-8.24,6.41-.53L73.41,95.6Q61.64,96.53,49.91,97.79Z"/><path d="M48.78,99.34l-1.45-6.94,1.56-.17,1.59-.17L47.15,75.53l-2,.21-1.28.14-1.45-6.94L44,68.78c5.44-.59,10.95-1.13,16.37-1.61l1.3-.12,1.2,7-1.54.14-2.55.23,3,16.57,3.07-.28-1.38-8.24L65,82.31l6.42-.53,1.32-.1L75,96.9,73.53,97c-7.86.62-15.75,1.35-23.46,2.19Zm2-4.45L51,96.24c6.83-.73,13.8-1.38,20.74-1.94l-1.46-9.59L66.78,85l1.38,8.24-1.53.13-5.88.53-1.3.12-4-22.18L57,71.7l2.57-.24-.23-1.34c-4.46.4-9,.85-13.45,1.32l.28,1.34,2-.21,1.28-.13,4.46,22.14-1.56.16Z"/><path d="M76.23,71.54l-.57-4.17q6.59-.47,13.18-.83l.45,4.17-1.44.08,1.88,16.91q.33,3,2.87,2.81,2.76-.15,2.45-3.37L93.41,70.5,92,70.57l-.43-4.18q4.93-.26,9.87-.46l.34,4.18L99,70.23l1.45,16.82a6.16,6.16,0,0,1-2.05,5.36A10,10,0,0,1,92,94.75c-3.19.18-5.7-.32-7.55-1.5a7.31,7.31,0,0,1-3.27-5.53L79,71.35Z"/><path d="M90.74,96.21a12.81,12.81,0,0,1-7.07-1.76,8.7,8.7,0,0,1-3.92-6.54l-2-15.05L75,73.05l-1-7L75.56,66c4.39-.31,8.83-.59,13.21-.83L91.47,65q4.94-.26,9.89-.46l1.37-.06.56,7-2.77.12,1.33,15.34a7.54,7.54,0,0,1-2.51,6.53,11.41,11.41,0,0,1-7.27,2.7Q91.38,96.21,90.74,96.21ZM80.24,69.84l2.32,17.7a5.9,5.9,0,0,0,2.63,4.51c1.57,1,3.82,1.44,6.7,1.28a8.56,8.56,0,0,0,5.51-2A4.77,4.77,0,0,0,99,87.18l-1.58-18.3,2.79-.12-.11-1.34-7,.33.14,1.34L94.69,69l1.78,18a4.7,4.7,0,0,1-.89,3.65,3.92,3.92,0,0,1-2.9,1.28c-2.48.13-4.06-1.35-4.36-4.07l-2-18.4,1.44-.09L87.57,68c-3.42.2-6.87.41-10.3.65L77.46,70Zm9.19,2.29,1.72,15.42c.18,1.61.82,1.58,1.38,1.55a1.34,1.34,0,0,0,.89-.3,2.23,2.23,0,0,0,.22-1.51L92.13,72l-1.44.08h0Z"/><path d="M110.22,93.56l-.27-4.18,2.46-.08-1.15-19.52-2.58.08q-.14-2.09-.27-4.18,7.29-.24,14.58-.35,1.37,5.48,2.67,11h.61q1-5.52,2-11,7.85-.08,15.71,0,0,2.09-.06,4.19l-2.48,0q-.08,9.77-.16,19.54l2.37,0q0,2.09-.06,4.19-6.3-.05-12.6,0,0-2.09-.07-4.19h1.87q-.11-10-.23-20H132q-2.81,12.09-5.29,24.2l-2.67,0q-3.33-12-7-24h-.68q.47,10,.95,20l1.87,0q.09,2.09.18,4.19Q114.81,93.41,110.22,93.56Z"/><path d="M108.89,95l-.45-7,2.47-.08-1-16.68-2.57.08-.45-7,1.46,0c4.7-.16,9.61-.28,14.61-.35l1.13,0,.27,1.1q.73,2.92,1.44,5.84.53-2.92,1.08-5.83l.21-1.15h1.17c5.18,0,10.48-.05,15.73,0h1.43l-.1,7-2.47,0-.14,16.69h2.38l-.1,7H143.6c-4.19,0-8.42,0-12.57,0h-1.41l-.11-7h1.88l-.1-8.85c-1.09,4.92-2.15,9.87-3.16,14.79l-.23,1.12h-1.14l-2.67,0-1.1,0-.29-1.06c-1.43-5.17-2.92-10.39-4.46-15.58l.46,9.7,1.88,0,.3,7-1.45,0q-4.58.1-9.16.25Zm2.57-4.27.09,1.34,6.36-.17-.06-1.34-1.87,0-1.08-22.8,3.21-.06.31,1c2.33,7.62,4.58,15.35,6.7,23h.44c1.59-7.71,3.3-15.48,5.07-23.12l.25-1.09,3.11,0,.26,22.81h-1.87l0,1.34c3.24,0,6.53,0,9.8,0l0-1.34h-2.36L140.05,68l2.48,0,0-1.34c-4.37,0-8.76,0-13.08,0q-.92,4.93-1.79,9.86l-.2,1.15-2.92,0-.27-1.1q-1.18-4.93-2.4-9.86c-4.07.07-8.09.17-12,.29L110,68.4l2.58-.08,1.32,22.36Z"/><path d="M150.35,93.24q.06-2.09.12-4.19l2.56,0q.35-9.76.7-19.53l-2.68,0q.06-2.09.12-4.19,6.5.11,13,.32c3.76.12,6.67.86,8.71,2.19a5.64,5.64,0,0,1,2.74,5.55c-.25,2.93-2.12,4.77-5.56,5.55,3.69,1.44,5.37,3.74,5.1,6.86a7.24,7.24,0,0,1-3.82,5.89c-2.31,1.35-5.43,2-9.39,1.83S154.22,93.3,150.35,93.24Zm12.26-23.68-.43,7.75c1.89.06,3.1-.2,3.65-.77a4.42,4.42,0,0,0,1-2.82,5.41,5.41,0,0,0-.31-2.6,2.24,2.24,0,0,0-1.3-1.2A8.81,8.81,0,0,0,162.61,69.56ZM162,81.11q-.23,4.1-.46,8.21a11.26,11.26,0,0,0,2.67-.16,2.31,2.31,0,0,0,1.47-1.06,5.94,5.94,0,0,0,.66-2.7,5.43,5.43,0,0,0-.35-2.74,2.32,2.32,0,0,0-1.36-1.21A9.93,9.93,0,0,0,162,81.11Z"/><path d="M163,95l-1,0c-3.8-.12-7.69-.21-11.58-.28l-1.44,0,.21-7,2.57,0,.6-16.69-2.67,0,.21-7,1.4,0c4.31.07,8.69.18,13,.32,4,.13,7.17.94,9.44,2.42A7.08,7.08,0,0,1,177,73.51a6.93,6.93,0,0,1-3.56,5.65,7.21,7.21,0,0,1,3.1,6.76,8.62,8.62,0,0,1-4.52,7A17.77,17.77,0,0,1,163,95Zm-11.15-3.11c3.42.06,6.84.15,10.19.25,3.67.11,6.57-.44,8.63-1.64a5.84,5.84,0,0,0,3.12-4.79c.14-1.57-.15-3.83-4.2-5.41l-4.33-1.69,4.53-1c3.74-.84,4.33-2.85,4.46-4.28A4.23,4.23,0,0,0,172.1,69c-1.82-1.19-4.51-1.85-8-2-3.84-.12-7.73-.22-11.57-.29l0,1.34,2.69,0-.8,22.37-2.55,0Zm10.37-1.1h-.71l-1.46,0,.61-11,1.38,0a11.1,11.1,0,0,1,3,.42A3.75,3.75,0,0,1,167.23,82a6.67,6.67,0,0,1,.5,3.48,7.18,7.18,0,0,1-.88,3.36,3.75,3.75,0,0,1-2.35,1.68A10.72,10.72,0,0,1,162.18,90.75Zm1.13-8.12L163,87.88a5.47,5.47,0,0,0,.85-.11.9.9,0,0,0,.59-.44,4.57,4.57,0,0,0,.44-2,4.06,4.06,0,0,0-.2-2,.89.89,0,0,0-.54-.5A4.78,4.78,0,0,0,163.31,82.63Zm-.64-3.89h-.53l-1.46,0,.59-10.58,1.38,0a10,10,0,0,1,3,.45,3.67,3.67,0,0,1,2.11,1.92,6.68,6.68,0,0,1,.45,3.31,5.69,5.69,0,0,1-1.34,3.71C166.07,78.35,164.73,78.74,162.67,78.74Zm1.28-7.64-.26,4.75a2.22,2.22,0,0,0,1.12-.29,3.07,3.07,0,0,0,.56-1.92,4,4,0,0,0-.18-1.89.82.82,0,0,0-.49-.47A4.09,4.09,0,0,0,163.95,71.1Z"/><path d="M181.48,94.36l.43-4.17,3.44.2,2.17-19.47-3.6-.21.43-4.17q8.21.45,16.4,1.06l-.58,4.16-3.8-.28-2.55,19.45,3.64.26-.58,4.16Q189.18,94.79,181.48,94.36Z"/><path d="M198.1,96.87l-1.33-.1c-5-.37-10.2-.71-15.36-1l-1.49-.08.73-7,1.35.08,2.1.12,1.85-16.64L182.36,72l.72-7,1.35.08c5.52.31,11,.66,16.43,1.06l1.51.11-1,7-1.33-.1L197.61,73l-2.18,16.62,2.14.16,1.51.11ZM183,93c4.23.24,8.46.52,12.6.82l.19-1.34-2.12-.15-1.51-.1L195.14,70l1.33.09,2.48.18.19-1.34c-4.44-.32-9-.62-13.51-.87l-.14,1.34,3.61.21-2.48,22.3-1.35-.08-2.09-.12Z"/><path d="M203.55,95.88l.65-4.16,2.26.19,3.13-19.4-2.36-.2.65-4.16q5.39.45,10.78,1a78.55,78.55,0,0,1,4.19,17.26l.45,0q.86-6.12,1-7L225.38,74l-2.15-.22.8-4.15q4.91.5,9.82,1.06L233,74.84l-2-.23-5,23.68-6.47-.69q-.79-2.9-1.62-5.81-1.11-3.79-2-7.14t-1.55-7l-.48,0A93.68,93.68,0,0,1,212.7,87l-.94,5.4,2,.18L213,96.72Q208.27,96.27,203.55,95.88Z"/><path d="M227.06,99.84l-1.28-.14L219.32,99l-1-.1-.26-.94q-.79-2.9-1.62-5.79c-.78-2.66-1.43-5-2-7.18l0-.1q-.17,1.17-.37,2.33l-.68,3.89,2,.18-1.24,7-1.3-.12q-4.7-.45-9.41-.83l-1.52-.13,1.08-7,2.27.19,2.67-16.59-.83-.07-1.52-.12,1.09-7,1.32.11c3.62.3,7.25.62,10.79,1l.88.08.31.83q1,2.56,1.76,5.36l1.13-5.87,1.29.13q4.92.5,9.83,1.06l1.56.18-1.49,6.93-2-.23Zm-6.48-3.56,4.23.45,5-23.68,2.05.23.29-1.34q-3.47-.39-6.95-.75l-.26,1.34,2.16.22-1.37,6.92c-.13.67-.59,3.88-1,6.94L224.5,88l-2.93-.31-.15-1.1a78.61,78.61,0,0,0-3.8-16.12c-2.82-.27-5.68-.52-8.55-.76L208.87,71l.84.07,1.52.13-3.58,22.21-2.25-.19-.21,1.34,6.62.59.24-1.34-2-.18,1.2-6.92a92.74,92.74,0,0,0,1.13-9.27l.1-1.46,3,.29.2,1c.46,2.42,1,4.75,1.53,6.95s1.18,4.46,2,7.09Q219.91,93.84,220.58,96.28Zm1.48-21.18q.49,1.85.91,3.78l.71-3.61Z"/><path d="M252.61,92.46l-2.37-.33L251.33,88q5.47.76,10.93,1.6a25.22,25.22,0,0,1-2.41,5.93,11.91,11.91,0,0,1-3.29,3.58,11.17,11.17,0,0,1-4.31,1.88,15,15,0,0,1-5,.1c-3.71-.51-6.33-2.1-7.91-4.8s-1.87-6.28-.83-10.77,2.78-7.93,5.22-10.19a10.23,10.23,0,0,1,8.72-2.72,6.83,6.83,0,0,1,5.12,3.22h.1l.55-2,5.86.86L261.37,84l-5.73-.84a6.49,6.49,0,0,0,0-4,3,3,0,0,0-5.21-.31A31.79,31.79,0,0,0,248,86a63.28,63.28,0,0,0-1.41,6.54,5.67,5.67,0,0,0,.14,3,2,2,0,0,0,1.64,1Q251.32,96.93,252.61,92.46Z"/><path d="M249.5,102.68a18.22,18.22,0,0,1-2.5-.18c-4.14-.57-7.15-2.42-8.94-5.48s-2.1-7-1-11.81,3-8.48,5.64-10.91a11.61,11.61,0,0,1,9.88-3.09,8.49,8.49,0,0,1,4.33,1.8l.21-.78,1.25.18,5.87.86,1.6.24L262.4,85.6l-1.23-.18-5.72-.84-1.55-.22.37-1.52a5.09,5.09,0,0,0,.08-3.13,1.3,1.3,0,0,0-1.16-.82,1.33,1.33,0,0,0-1.53.67c-.4.65-1.1,2.35-2.22,6.75A62.33,62.33,0,0,0,248,92.7a4.51,4.51,0,0,0,0,2.18c.08.15.35.22.57.25.37.05,1.24.17,2.06-1.5l-.61-.08-1.59-.22,1.82-6.88,1.25.17c3.73.52,7.41,1.06,11,1.6l1.6.24L263.63,90a26.71,26.71,0,0,1-2.56,6.27,13.38,13.38,0,0,1-3.67,4,12.65,12.65,0,0,1-4.86,2.11A15.26,15.26,0,0,1,249.5,102.68Zm1.24-28.75a8.65,8.65,0,0,0-6.09,2.46c-2.2,2-3.81,5.22-4.8,9.47-.95,4.08-.72,7.35.67,9.73s3.6,3.65,6.88,4.11A13.66,13.66,0,0,0,252,99.6,9.69,9.69,0,0,0,255.74,98a10.56,10.56,0,0,0,2.89-3.15,20.56,20.56,0,0,0,1.78-4c-2.62-.4-5.31-.79-8-1.17L252,90.94l.78.11,1.62.23L254,92.85c-1.35,4.67-3.87,5.34-5.76,5.08a3.35,3.35,0,0,1-2.72-1.78,6.7,6.7,0,0,1-.28-3.83,63.81,63.81,0,0,1,1.44-6.7c1-3.92,1.81-6.31,2.55-7.52a4.41,4.41,0,0,1,7.72.48A6.43,6.43,0,0,1,257.3,82l3,.45,1.87-6.58-3-.44-.55,2-1.24-.18-.19,0-.59-.12-.32-.51A5.42,5.42,0,0,0,252.21,74,10.89,10.89,0,0,0,250.74,73.93Z"/><path d="M19,101.74l-1.17-4.1,2.43-.36L14.88,78.13l-2.54.37-1.17-4.1q5.94-.88,11.9-1.67c4.36-.58,8-.22,10.74,1a8.47,8.47,0,0,1,5.1,6.07c1.27,5.75-2.68,9.12-11.83,10.33l1.54,5.94,2.93-.39,1,4.12Q25.75,100.74,19,101.74Zm4.68-24.83L26,86.06q2.8-.37,3.5-1.71a5,5,0,0,0,.16-3.52C28.92,77.79,26.91,76.48,23.64,76.91Z"/><path d="M49.91,97.79,49,93.65l3.13-.33L48.29,74,45,74.33l-.86-4.14q8.16-.88,16.35-1.61l.71,4.16-4.1.37,3.51,19.37L66.5,92l-1.38-8.24,6.41-.53L73.41,95.6Q61.64,96.53,49.91,97.79Z"/><path d="M76.23,71.54l-.57-4.17q6.59-.47,13.18-.83l.45,4.17-1.44.08,1.88,16.91q.33,3,2.87,2.81,2.76-.15,2.45-3.37L93.41,70.5,92,70.57l-.43-4.18q4.93-.26,9.87-.46l.34,4.18L99,70.23l1.45,16.82a6.16,6.16,0,0,1-2.05,5.36A10,10,0,0,1,92,94.75c-3.19.18-5.7-.32-7.55-1.5a7.31,7.31,0,0,1-3.27-5.53L79,71.35Z"/><path d="M110.22,93.56l-.27-4.18,2.46-.08-1.15-19.52-2.58.08q-.14-2.09-.27-4.18,7.29-.24,14.58-.35,1.37,5.48,2.67,11h.61q1-5.52,2-11,7.85-.08,15.71,0,0,2.09-.06,4.19l-2.48,0q-.08,9.77-.16,19.54l2.37,0q0,2.09-.06,4.19-6.3-.05-12.6,0,0-2.09-.07-4.19h1.87q-.11-10-.23-20H132q-2.81,12.09-5.29,24.2l-2.67,0q-3.33-12-7-24h-.68q.47,10,.95,20l1.87,0q.09,2.09.18,4.19Q114.81,93.41,110.22,93.56Z"/><path d="M150.35,93.24q.06-2.09.12-4.19l2.56,0q.35-9.76.7-19.53l-2.68,0q.06-2.09.12-4.19,6.5.11,13,.32c3.76.12,6.67.86,8.71,2.19a5.64,5.64,0,0,1,2.74,5.55c-.25,2.93-2.12,4.77-5.56,5.55,3.69,1.44,5.37,3.74,5.1,6.86a7.24,7.24,0,0,1-3.82,5.89c-2.31,1.35-5.43,2-9.39,1.83S154.22,93.3,150.35,93.24Zm12.26-23.68-.43,7.75c1.89.06,3.1-.2,3.65-.77a4.42,4.42,0,0,0,1-2.82,5.41,5.41,0,0,0-.31-2.6,2.24,2.24,0,0,0-1.3-1.2A8.81,8.81,0,0,0,162.61,69.56ZM162,81.11q-.23,4.1-.46,8.21a11.26,11.26,0,0,0,2.67-.16,2.31,2.31,0,0,0,1.47-1.06,5.94,5.94,0,0,0,.66-2.7,5.43,5.43,0,0,0-.35-2.74,2.32,2.32,0,0,0-1.36-1.21A9.93,9.93,0,0,0,162,81.11Z"/><path d="M181.48,94.36l.43-4.17,3.44.2,2.17-19.47-3.6-.21.43-4.17q8.21.45,16.4,1.06l-.58,4.16-3.8-.28-2.55,19.45,3.64.26-.58,4.16Q189.18,94.79,181.48,94.36Z"/><path d="M203.55,95.88l.65-4.16,2.26.19,3.13-19.4-2.36-.2.65-4.16q5.39.45,10.78,1a78.55,78.55,0,0,1,4.19,17.26l.45,0q.86-6.12,1-7L225.38,74l-2.15-.22.8-4.15q4.91.5,9.82,1.06L233,74.84l-2-.23-5,23.68-6.47-.69q-.79-2.9-1.62-5.81-1.11-3.79-2-7.14t-1.55-7l-.48,0A93.68,93.68,0,0,1,212.7,87l-.94,5.4,2,.18L213,96.72Q208.27,96.27,203.55,95.88Z"/><path d="M252.61,92.46l-2.37-.33L251.33,88q5.47.76,10.93,1.6a25.22,25.22,0,0,1-2.41,5.93,11.91,11.91,0,0,1-3.29,3.58,11.17,11.17,0,0,1-4.31,1.88,15,15,0,0,1-5,.1c-3.71-.51-6.33-2.1-7.91-4.8s-1.87-6.28-.83-10.77,2.78-7.93,5.22-10.19a10.23,10.23,0,0,1,8.72-2.72,6.83,6.83,0,0,1,5.12,3.22h.1l.55-2,5.86.86L261.37,84l-5.73-.84a6.49,6.49,0,0,0,0-4,3,3,0,0,0-5.21-.31A31.79,31.79,0,0,0,248,86a63.28,63.28,0,0,0-1.41,6.54,5.67,5.67,0,0,0,.14,3,2,2,0,0,0,1.64,1Q251.32,96.93,252.61,92.46Z"/><path d="M8.89,57,7.84,51.26l2.29-.51L5.26,23.61l-2.38.53L1.83,18.38q5.49-1.24,11-2.37A142.18,142.18,0,0,1,24.09,37.73l.46-.09q-1.7-8.51-1.9-9.78l-1.19-7.6-2.22.43-.92-5.79q5-1,10.07-1.89l.84,5.8-2.06.37,5,33.46q-3.36.61-6.72,1.27-2-3.62-4-7.23-2.67-4.71-4.9-8.91t-4.43-8.9l-.5.1q1.65,6.6,2.74,13l1.3,7.57,2-.41,1,5.78Q13.72,55.93,8.89,57Z"/><path d="M7.64,58.92,6,50.06l1.47-.34.82-.19L4,25.51l-.77.17L1.62,26,0,17.17l1.48-.33c3.64-.82,7.35-1.62,11-2.38l1.06-.22.59.91Q16,17.93,17.7,21l-1.17-7.37L18,13.35c3.37-.66,6.77-1.3,10.1-1.9l1.61-.29L31,20.1,29,20.47l5,33.45-1.5.27q-3.35.61-6.7,1.26l-1.13.22-.56-1q-2-3.62-4-7.22c-1.69-3-3.25-5.8-4.63-8.39q.25,1.34.48,2.67l1,6,2-.41,1.5,8.9-1.49.31c-3.19.66-6.43,1.36-9.63,2.08Zm2-6.45.49,2.65c2.2-.49,4.4-1,6.59-1.43L16.3,51l-2,.42-1.57-9.19C12,38,11.1,33.65,10,29.36l-.4-1.58L13,27.06l.53,1.13c1.45,3.09,2.92,6.06,4.4,8.83s3.08,5.7,4.88,8.87q1.75,3.12,3.47,6.24l4.11-.78-5-33.46,2.07-.38-.39-2.68c-2.3.42-4.62.85-6.94,1.3l.42,2.67.62-.12,1.61-.31,1.44,9.22c.16,1,1.15,6,1.89,9.72l.31,1.57-3.24.62-.54-1.17A143.55,143.55,0,0,0,12.08,17.77c-2.81.58-5.64,1.19-8.43,1.81l.49,2.65.78-.17,1.61-.36L12,52,10,52.39Zm8.83-30q1.24,2.26,2.45,4.67l-.78-5-.61.12Z"/><path d="M38.8,51.44,38,45.64,41.54,45,37.83,17.67l-3.7.63-.82-5.81Q41.7,11,50.1,9.81l.68,5.83-3.92.58,3.37,27.42L54,43.08l.68,5.83Q46.74,50.06,38.8,51.44Z"/><path d="M37.46,53.28,36.2,44.34l1.5-.26,2.06-.36L36.48,19.5l-2.08.36-1.61.28-1.26-8.94L33,10.93c5.54-1,11.2-1.87,16.83-2.68L51.48,8l1.05,9L51,17.21l-2.39.35,3,24.28,2.18-.32,1.6-.23,1.05,9-1.52.22c-5.21.76-10.55,1.61-15.85,2.53Zm2.3-6.34.38,2.68c4.29-.73,8.58-1.42,12.81-2l-.32-2.69-2.16.32-1.61.24L45.11,14.89l1.52-.23L49,14.3l-.32-2.69c-4.56.67-9.13,1.4-13.64,2.17l.38,2.68,2.1-.36,1.61-.27,4.14,30.49-1.51.25Z"/><path d="M71.19,32.68q3.47.69,6.92,1.41a16.53,16.53,0,0,1-2.68,9.45,9.2,9.2,0,0,1-6.63,4c-3.54.42-6.59-1-9.2-4.33S55.3,35,54.55,28.38c-.69-6.11-.24-11.05,1.41-14.81s4-5.83,7-6.2C65.06,7.11,67,8,68.77,10h.11L68.63,7.3l6.11-.65L75.83,19.9q-3,.31-6,.64-1.13-7.22-4.1-6.87-2,.23-2.06,3.21a92.92,92.92,0,0,0,.63,10.18A73.66,73.66,0,0,0,66,38.52c.55,1.78,1.46,2.59,2.75,2.44q1.52-.18,2-2.19A22.81,22.81,0,0,0,71.19,32.68Z"/><path d="M67.62,49.23c-3.53,0-6.64-1.68-9.25-5-2.8-3.56-4.61-8.83-5.38-15.67-.73-6.49-.23-11.6,1.53-15.62,1.88-4.29,4.66-6.69,8.27-7.13A7.09,7.09,0,0,1,67,6.56l-.06-.65,1.54-.17,6.13-.65,1.6-.16,1.34,16.39L76,21.47q-3,.3-6,.64l-1.5.17-.23-1.49c-.62-4-1.63-5.63-2.36-5.55-.15,0-.62.07-.67,1.68a92.29,92.29,0,0,0,.62,10A73.29,73.29,0,0,0,67.5,38.06c.44,1.41.87,1.35,1.06,1.33s.45-.05.71-1a21.53,21.53,0,0,0,.35-5.63l-.06-2,1.95.38q3.48.69,6.94,1.42l1.28.27,0,1.31a18.14,18.14,0,0,1-3,10.34A10.78,10.78,0,0,1,69,49.15,11.74,11.74,0,0,1,67.62,49.23Zm-4-40.32a4.07,4.07,0,0,0-.5,0c-2.46.3-4.34,2-5.76,5.26-1.51,3.45-1.94,8.16-1.29,14,.71,6.24,2.3,11,4.73,14.07,2.26,2.87,4.8,4.09,7.77,3.74a7.64,7.64,0,0,0,5.54-3.38,14.15,14.15,0,0,0,2.32-7.26l-3.68-.75a19.15,19.15,0,0,1-.48,4.56c-.71,2.65-2.43,3.24-3.39,3.35-1.21.14-3.39-.13-4.44-3.54-.59-1.89-1.16-5.75-1.76-11.78a93.34,93.34,0,0,1-.64-10.39c.11-3.91,2.45-4.61,3.45-4.73,3.69-.42,5,3.94,5.59,6.71l3-.32L73.3,8.39l-3,.32.24,2.64-2.4.33-.6-.62A5.26,5.26,0,0,0,63.66,8.91Z"/><path d="M81.57,45.56q-.23-2.93-.45-5.86l2.68-.25-2-27.58L79,12.13l-.45-5.86q7.16-.68,14.33-1.19Q93.06,8,93.22,11l-2.35.17,1.67,27.61,1.79-.13q.17,2.93.34,5.87Q88.12,44.94,81.57,45.56Zm15.66-1.27q-.16-2.93-.32-5.87l1.85-.12q-3.06-7.21-6.23-14.4,2.82-6.66,5.75-13.29l-2.38.15q-.16-2.93-.31-5.87,5.63-.38,11.26-.64l.22,5.87-2.29.11q-2.37,5.17-4.66,10.36,3.72,8.58,7.28,17.21l2.26-.11q.11,2.94.21,5.87Q103.54,43.87,97.23,44.29Z"/><path d="M80.12,47.29l-.69-9L81,38.13,82.12,38,80.33,13.6l-1.18.11-1.6.15-.69-9L78.4,4.7C83.2,4.25,88,3.85,92.78,3.51l1.6-.11h0l1.11-.07c3.68-.25,7.47-.46,11.29-.65l1.59-.08.35,9-2.89.14c-1.34,2.93-2.67,5.9-4,8.84,2.24,5.17,4.45,10.4,6.59,15.57l2.74-.13.33,9-1.56.07c-4.17.19-8.41.42-12.6.71L94.78,46c-4.39.32-8.79.69-13.06,1.09Zm2.7-6.16L83,43.84c3.28-.3,6.63-.58,10-.83l-.16-2.71-1.79.14L89.2,9.67l2.36-.17L91.4,6.78C87.71,7,84,7.36,80.25,7.7l.21,2.71,1.2-.11,1.6-.14,2.24,30.73L83.95,41ZM98.57,39.9l.15,2.71c3.17-.2,6.36-.38,9.51-.53l-.1-2.72-1.77.08-.42-1c-2.35-5.7-4.8-11.48-7.27-17.18l-.28-.63.28-.63c1.53-3.45,3.1-6.94,4.67-10.38l.4-.87,1.69-.09-.1-2.72c-2.72.14-5.43.29-8.08.46l.15,2.71.79,0,2.59-.16-1,2.37c-1.85,4.18-3.69,8.43-5.47,12.64,2,4.56,4,9.19,6,13.79l.87,2.05Zm-5-9.59L94,37,95.25,37h0l1.19-.08Q95,33.59,93.61,30.3ZM92.54,12.59,92.93,19c.95-2.2,1.9-4.41,2.86-6.6l-1.38.09h0Z"/><path d="M127.76,43.07q0-2.94-.07-5.88l2.46,0Q132,23.3,134,9.46h-2.42q0-2.94,0-5.88,10.66-.08,21.31.23-.07,2.94-.14,5.88l-2.55-.07q1.91,13.88,3.65,27.78l2.31.08q-.09,2.94-.17,5.88-6.24-.22-12.49-.31,0-2.94.07-5.88l2.31,0q-.39-3.69-.79-7.38-3,0-6.1-.06-.45,3.68-.88,7.36h2.25q0,2.94,0,5.88Q134,43,127.76,43.07Zm11.82-18.22,4.9.05q-.88-8.21-1.81-16.42h-1Q140.59,16.66,139.59,24.85Z"/><path d="M157.52,45l-1.59-.06c-4.2-.15-8.39-.25-12.46-.3l-1.58,0,.1-9,2.11,0q-.22-2.11-.45-4.21l-3.28,0-.5,4.2h2.06l-.06,9h-1.58c-4.19,0-8.4,0-12.51,0l-1.58,0-.1-9,1.57,0,1.1,0C129.86,27.51,131,19.27,132.2,11H130l0-9h1.58c7.08-.05,14.28,0,21.37.23l1.57,0-.21,9-1.59,0-.69,0c1.11,8.17,2.2,16.44,3.23,24.62l2.53.09Zm-12.43-3.5c3.07,0,6.21.13,9.36.23l.08-2.72-2.06-.07-.19-1.34c-1.16-9.23-2.38-18.57-3.65-27.76L148.38,8l1.85,0,1,0,.06-2.72c-6-.16-12.1-.22-18.11-.19V7.89h2.67l-.26,1.81c-1.35,9.27-2.65,18.58-3.87,27.68l-.18,1.36h-2.25l0,2.72c3.11,0,6.26,0,9.41,0l0-2.72h-2.43l.21-1.76q.44-3.68.88-7.36l.17-1.4H139q3.06,0,6.12.06l1.39,0,.15,1.39q.4,3.69.79,7.38l.19,1.78-2.51,0Zm1.16-15-1.78,0-4.89-.05H137.8l.22-1.76q1-8.2,2.06-16.39l.18-1.4,3.84,0,.16,1.38q.93,8.21,1.81,16.43Zm-4.88-3.22h1.36q-.31-2.92-.64-5.84Q141.73,20.37,141.37,23.29Z"/><path d="M159.46,43.43q.09-2.94.19-5.88l3.27.14q.5-13.83,1-27.65l-3.4-.14Q160.61,7,160.7,4q8.42.32,16.83.88-.16,2.93-.32,5.87L173,10.51l-1.34,27.63q3.08.18,6.16.4l.67-11.67q3.34.24,6.69.51-.59,8.77-1.17,17.53Q171.74,43.9,159.46,43.43Z"/><path d="M185.47,46.61l-1.6-.13c-8.11-.66-16.35-1.16-24.47-1.47l-1.57-.06.29-9,1.59.06,1.69.07.89-24.49-1.82-.07-1.57-.06.28-9,1.59.06c5.63.22,11.31.51,16.87.88l1.56.1-.49,9-1.6-.11-2.61-.17-1.19,24.48,3,.2L177,25.18l1.6.11q3.35.24,6.7.51l1.55.13Zm-24.38-4.69c7.13.29,14.33.72,21.44,1.29l1-14.38L180,28.55l-.67,11.67-1.6-.11q-3.07-.21-6.14-.4L170,39.62l1.5-30.79,1.59.09,2.63.16.15-2.71c-4.51-.29-9.08-.53-13.64-.71l-.09,2.72,1.84.08,1.56.07-1.12,30.81-1.59-.07-1.67-.07Z"/><path d="M188.48,45.12q.21-2.93.41-5.86l3.26.29q1-13.79,2.07-27.58l-3.39-.3q.21-2.93.41-5.86,8.4.73,16.8,1.69l-.55,5.85-4.2-.47-2.42,27.54q3.07.33,6.15.69l1.12-11.63q3.34.4,6.67.83L213,47.77Q200.74,46.18,188.48,45.12Z"/><path d="M214.37,49.54l-1.6-.21c-8.15-1.06-16.36-1.95-24.42-2.64l-1.55-.13.64-9,1.6.14,1.67.15,1.84-24.43-1.83-.16-1.55-.13.64-9,1.6.14c5.57.48,11.24,1.05,16.84,1.69l1.54.18-.84,9-1.6-.18-2.59-.29L202.59,39l3,.34,1.12-11.63,1.6.19q3.34.4,6.69.83l1.53.2Zm-24.21-5.86c7.08.63,14.26,1.41,21.4,2.31l1.52-14.32-3.52-.44-1.12,11.63-1.6-.19q-3.06-.36-6.13-.69l-1.54-.16,2.69-30.69,1.6.17,2.61.29.25-2.7c-4.54-.51-9.1-1-13.62-1.37l-.19,2.71,1.85.17,1.55.14-2.31,30.72-1.83-.17L190.35,41Z"/><path d="M216.37,48.09l.64-5.84,3.2.44,3.14-27.45L220,14.78l.64-5.84q13,1.74,25.9,4.05l-1.8,12.37q-3.36-.6-6.73-1.16l.9-6.58q-3.26-.55-6.53-1.05l-1.31,10.35,5,.8-.78,5.82-4.95-.79L228.91,44q3.14.49,6.28,1l.94-6.93q3.3.55,6.6,1.14l-1.86,12.72Q228.65,49.74,216.37,48.09Z"/><path d="M242.21,53.77l-1.6-.29c-8.05-1.44-16.28-2.73-24.44-3.83l-1.53-.21,1-9,1.6.22,1.6.22,2.78-24.31-1.79-.24-1.53-.21,1-9,1.6.22c8.63,1.16,17.37,2.53,26,4.06l1.51.27-2.26,15.5-1.6-.29q-3.36-.6-6.71-1.16l-1.51-.25.89-6.57-3.4-.55-.92,7.21,3.48.56,1.51.25-1.2,8.95L235,35.1l-3.33-.54-1,8.1,3.18.51.94-6.93,1.6.27q3.31.55,6.62,1.14l1.5.27Zm-24.1-7c7.17,1,14.37,2.11,21.45,3.36L241,40.5l-3.47-.6-.94,6.93-1.6-.27q-3.13-.52-6.26-1l-1.52-.24L229,30.94l1.6.25,3.36.53.36-2.68-3.46-.55-1.52-.24L231,14.77l1.6.25q3.28.51,6.55,1.06l1.51.25-.89,6.58,3.63.63,1.35-9.24c-7.53-1.33-15.16-2.52-22.72-3.56l-.3,2.7,1.81.25,1.53.21-3.5,30.59-1.6-.23L218.4,44Z"/><path d="M245.25,52.55l.88-5.8,2.3.43,4.21-27.28-2.39-.45.87-5.8q5.51,1,11,2.14a152,152,0,0,1,3.51,24.76l.46.1q1.16-8.62,1.38-9.89l1.35-7.57-2.22-.48,1-5.77q5,1.07,10,2.23l-1.09,5.75-2.05-.47-6.17,33.21q-3.35-.76-6.7-1.48Q261,52,260.23,47.85q-1-5.46-1.7-10.26t-1.26-10.07l-.5-.1q-.59,6.82-1.64,13.25l-1.23,7.59,2,.4-1,5.78Q250.09,53.44,245.25,52.55Z"/><path d="M269.59,59.58l-1.6-.37q-3.34-.76-6.68-1.48l-1-.23-.18-1.06q-.69-4.17-1.41-8.34c-.61-3.45-1.15-6.69-1.6-9.63q-.18,1.22-.38,2.43l-1,6.08.5.1,1.49.31-1.47,8.9-1.6-.33c-3.18-.65-6.43-1.28-9.65-1.87l-1.5-.28,1.35-8.92,1.6.3.7.13,3.73-24.15L250,21l-1.5-.28,1.35-8.93,1.6.3c3.64.67,7.35,1.4,11,2.15l1,.2.23,1q.78,3.31,1.41,6.87l1.27-7.25,1.6.34c3.35.72,6.73,1.47,10.06,2.24l1.48.34-1.67,8.86-2-.47ZM263,54.88l4.06.9,6.17-33.21,2.06.47.5-2.65c-2.3-.53-4.62-1-6.92-1.54l-.46,2.66,2.22.48L269,31.05c-.14.79-.58,3.92-1.37,9.83l-.23,1.71-3.29-.73-.08-1.19a153.21,153.21,0,0,0-3.24-23.52c-2.81-.57-5.62-1.12-8.39-1.64l-.4,2.67.89.17,1.5.28L249.73,49l-1.61-.31-.68-.13-.4,2.67c2.2.41,4.41.84,6.6,1.28l.44-2.67-.48-.1-1.5-.3,1.48-9.09c.69-4.25,1.24-8.66,1.62-13.13l.15-1.74,3.37.66.12,1.16c.36,3.48.78,6.84,1.25,10s1,6.53,1.69,10.22Q262.42,51.23,263,54.88Zm2.36-30.8q.42,2.55.76,5.23l.87-4.88Z"/><path d="M8.89,57,7.84,51.26l2.29-.51L5.26,23.61l-2.38.53L1.83,18.38q5.49-1.24,11-2.37A142.18,142.18,0,0,1,24.09,37.73l.46-.09q-1.7-8.51-1.9-9.78l-1.19-7.6-2.22.43-.92-5.79q5-1,10.07-1.89l.84,5.8-2.06.37,5,33.46q-3.36.61-6.72,1.27-2-3.62-4-7.23-2.67-4.71-4.9-8.91t-4.43-8.9l-.5.1q1.65,6.6,2.74,13l1.3,7.57,2-.41,1,5.78Q13.72,55.93,8.89,57Z"/><path d="M38.8,51.44,38,45.64,41.54,45,37.83,17.67l-3.7.63-.82-5.81Q41.7,11,50.1,9.81l.68,5.83-3.92.58,3.37,27.42L54,43.08l.68,5.83Q46.74,50.06,38.8,51.44Z"/><path d="M71.19,32.68q3.47.69,6.92,1.41a16.53,16.53,0,0,1-2.68,9.45,9.2,9.2,0,0,1-6.63,4c-3.54.42-6.59-1-9.2-4.33S55.3,35,54.55,28.38c-.69-6.11-.24-11.05,1.41-14.81s4-5.83,7-6.2C65.06,7.11,67,8,68.77,10h.11L68.63,7.3l6.11-.65L75.83,19.9q-3,.31-6,.64-1.13-7.22-4.1-6.87-2,.23-2.06,3.21a92.92,92.92,0,0,0,.63,10.18A73.66,73.66,0,0,0,66,38.52c.55,1.78,1.46,2.59,2.75,2.44q1.52-.18,2-2.19A22.81,22.81,0,0,0,71.19,32.68Z"/><path d="M81.57,45.56q-.23-2.93-.45-5.86l2.68-.25-2-27.58L79,12.13l-.45-5.86q7.16-.68,14.33-1.19Q93.06,8,93.22,11l-2.35.17,1.67,27.61,1.79-.13q.17,2.93.34,5.87Q88.12,44.94,81.57,45.56Zm15.66-1.27q-.16-2.93-.32-5.87l1.85-.12q-3.06-7.21-6.23-14.4,2.82-6.66,5.75-13.29l-2.38.15q-.16-2.93-.31-5.87,5.63-.38,11.26-.64l.22,5.87-2.29.11q-2.37,5.17-4.66,10.36,3.72,8.58,7.28,17.21l2.26-.11q.11,2.94.21,5.87Q103.54,43.87,97.23,44.29Z"/><path d="M127.76,43.07q0-2.94-.07-5.88l2.46,0Q132,23.3,134,9.46h-2.42q0-2.94,0-5.88,10.66-.08,21.31.23-.07,2.94-.14,5.88l-2.55-.07q1.91,13.88,3.65,27.78l2.31.08q-.09,2.94-.17,5.88-6.24-.22-12.49-.31,0-2.94.07-5.88l2.31,0q-.39-3.69-.79-7.38-3,0-6.1-.06-.45,3.68-.88,7.36h2.25q0,2.94,0,5.88Q134,43,127.76,43.07Zm11.82-18.22,4.9.05q-.88-8.21-1.81-16.42h-1Q140.59,16.66,139.59,24.85Z"/><path d="M159.46,43.43q.09-2.94.19-5.88l3.27.14q.5-13.83,1-27.65l-3.4-.14Q160.61,7,160.7,4q8.42.32,16.83.88-.16,2.93-.32,5.87L173,10.51l-1.34,27.63q3.08.18,6.16.4l.67-11.67q3.34.24,6.69.51-.59,8.77-1.17,17.53Q171.74,43.9,159.46,43.43Z"/><path d="M188.48,45.12q.21-2.93.41-5.86l3.26.29q1-13.79,2.07-27.58l-3.39-.3q.21-2.93.41-5.86,8.4.73,16.8,1.69l-.55,5.85-4.2-.47-2.42,27.54q3.07.33,6.15.69l1.12-11.63q3.34.4,6.67.83L213,47.77Q200.74,46.18,188.48,45.12Z"/><path d="M216.37,48.09l.64-5.84,3.2.44,3.14-27.45L220,14.78l.64-5.84q13,1.74,25.9,4.05l-1.8,12.37q-3.36-.6-6.73-1.16l.9-6.58q-3.26-.55-6.53-1.05l-1.31,10.35,5,.8-.78,5.82-4.95-.79L228.91,44q3.14.49,6.28,1l.94-6.93q3.3.55,6.6,1.14l-1.86,12.72Q228.65,49.74,216.37,48.09Z"/><path d="M245.25,52.55l.88-5.8,2.3.43,4.21-27.28-2.39-.45.87-5.8q5.51,1,11,2.14a152,152,0,0,1,3.51,24.76l.46.1q1.16-8.62,1.38-9.89l1.35-7.57-2.22-.48,1-5.77q5,1.07,10,2.23l-1.09,5.75-2.05-.47-6.17,33.21q-3.35-.76-6.7-1.48Q261,52,260.23,47.85q-1-5.46-1.7-10.26t-1.26-10.07l-.5-.1q-.59,6.82-1.64,13.25l-1.23,7.59,2,.4-1,5.78Q250.09,53.44,245.25,52.55Z"/><path d="M19,99.74l-1.17-4.1,2.43-.36L14.88,76.13l-2.54.37-1.17-4.1q5.94-.88,11.9-1.67c4.36-.58,8-.22,10.74,1a8.47,8.47,0,0,1,5.1,6.07c1.27,5.75-2.68,9.12-11.83,10.33l1.54,5.94,2.93-.39,1,4.12Q25.76,98.74,19,99.74Zm4.68-24.83L26,84.06q2.8-.37,3.5-1.71a5,5,0,0,0,.16-3.52C28.92,75.79,26.91,74.48,23.65,74.91Z"/><path d="M17.94,101.33l-2-6.86,2.44-.36-4.58-16.4-2.54.37-2-6.86L11,71c4-.59,8-1.15,11.92-1.67,4.6-.61,8.47-.22,11.51,1.16a9.87,9.87,0,0,1,5.9,7.05,8.21,8.21,0,0,1-1.08,6.74c-1.76,2.52-5.16,4.19-10.36,5.08l.83,3.2,2.94-.38,1.73,6.9-1.59.21c-4.49.58-9.07,1.22-13.59,1.89Zm1.67-4.52L20,98.16c3.6-.53,7.23-1,10.82-1.5l-.34-1.34-2.92.39L25.3,87l1.59-.21c5.19-.69,8.56-2.08,10-4.13a5.42,5.42,0,0,0,.64-4.49,7.07,7.07,0,0,0-4.3-5.08c-2.55-1.16-5.9-1.47-10-.93-3.38.45-6.83.93-10.28,1.43l.38,1.34,2.55-.37L22,96.46Zm5.34-11.18L21.87,73.71l1.59-.21c4-.53,6.67,1.24,7.59,5A6.36,6.36,0,0,1,30.77,83c-.7,1.34-2.19,2.15-4.57,2.47Zm.52-9.35L27,82.4c.89-.27,1.14-.59,1.2-.71a3.7,3.7,0,0,0,0-2.53C27.85,77.39,27,76.48,25.47,76.29Z"/><path d="M49.91,95.79,49,91.65l3.13-.33L48.29,72,45,72.33l-.86-4.14q8.16-.88,16.35-1.61l.71,4.16-4.1.37,3.51,19.37L66.5,90l-1.38-8.24,6.41-.53L73.42,93.6Q61.65,94.53,49.91,95.79Z"/><path d="M48.79,97.34l-1.45-6.94,1.56-.17,1.59-.17L47.15,73.53l-2,.21-1.28.14L42.45,67,44,66.78c5.44-.59,11-1.13,16.37-1.61l1.31-.12,1.2,7-1.54.14-2.55.23,3,16.57,3.07-.28-1.38-8.24L65,80.31l6.42-.53,1.32-.1L75.06,94.9,73.53,95c-7.86.62-15.75,1.35-23.46,2.19Zm2-4.45L51,94.24c6.83-.73,13.8-1.38,20.74-1.94l-1.46-9.59L66.78,83l1.38,8.24-1.53.13-5.88.53-1.3.12-4-22.18L57,69.7l2.57-.24-.23-1.34c-4.46.4-9,.85-13.45,1.32l.28,1.34,2-.21,1.28-.13,4.46,22.14-1.56.16Z"/><path d="M76.23,69.54l-.57-4.17q6.59-.47,13.18-.83l.45,4.17-1.44.08,1.88,16.91q.33,3,2.87,2.81,2.76-.15,2.45-3.37L93.41,68.5,92,68.57l-.43-4.18q4.93-.26,9.87-.46l.34,4.18L99,68.23l1.45,16.82a6.16,6.16,0,0,1-2.05,5.36A10,10,0,0,1,92,92.75c-3.19.18-5.7-.32-7.55-1.5a7.31,7.31,0,0,1-3.27-5.53L79,69.35Z"/><path d="M90.74,94.21a12.81,12.81,0,0,1-7.07-1.76,8.7,8.7,0,0,1-3.92-6.54l-2-15.05L75,71.05l-1-7L75.56,64c4.39-.31,8.83-.59,13.21-.83L91.47,63q4.94-.26,9.89-.46l1.37-.06.56,7-2.77.12,1.33,15.34a7.54,7.54,0,0,1-2.51,6.53,11.41,11.41,0,0,1-7.27,2.7Q91.38,94.21,90.74,94.21ZM80.25,67.84l2.33,17.7a5.9,5.9,0,0,0,2.63,4.51c1.57,1,3.82,1.44,6.7,1.28a8.56,8.56,0,0,0,5.51-2A4.77,4.77,0,0,0,99,85.18l-1.58-18.3,2.79-.12-.11-1.34-7,.33.14,1.34L94.69,67l1.78,18a4.7,4.7,0,0,1-.89,3.65,3.92,3.92,0,0,1-2.9,1.28c-2.47.13-4.06-1.35-4.36-4.07l-2.05-18.4,1.45-.09L87.58,66c-3.42.19-6.87.41-10.3.65L77.46,68Zm9.19,2.29,1.72,15.42c.18,1.61.81,1.58,1.38,1.55a1.34,1.34,0,0,0,.89-.3,2.23,2.23,0,0,0,.22-1.51L92.13,70l-1.44.08h0Z"/><path d="M110.22,91.56,110,87.38l2.46-.08-1.15-19.52-2.58.08q-.14-2.09-.27-4.18,7.29-.24,14.58-.35,1.37,5.48,2.67,11h.61q1-5.52,2-11,7.85-.08,15.71,0,0,2.09-.06,4.19l-2.48,0q-.08,9.77-.16,19.54l2.37,0q0,2.09-.06,4.19-6.3-.05-12.6,0,0-2.09-.07-4.19h1.87q-.11-10-.23-20H132q-2.81,12.09-5.29,24.2l-2.67,0q-3.33-12-7-24h-.68q.47,10,.95,20l1.87,0q.09,2.09.18,4.19Q114.81,91.41,110.22,91.56Z"/><path d="M108.89,93l-.45-7,2.47-.08-1-16.68-2.57.08-.46-7,1.47,0c4.7-.16,9.61-.28,14.61-.35l1.13,0,.27,1.1q.73,2.92,1.44,5.84.53-2.92,1.08-5.83l.21-1.15h1.17c5.18,0,10.48-.05,15.73,0h1.43l-.1,7-2.47,0-.14,16.69h2.38l-.1,7H143.6c-4.19,0-8.42,0-12.57,0h-1.41l-.11-7h1.88l-.1-8.85c-1.09,4.92-2.15,9.87-3.16,14.79l-.23,1.12h-1.14l-2.67,0-1.1,0-.29-1.06c-1.43-5.17-2.92-10.39-4.46-15.58l.46,9.7,1.88,0,.3,7-1.45,0q-4.58.1-9.16.25Zm2.57-4.27.09,1.34,6.36-.17-.06-1.34-1.87,0-1.08-22.8,3.21-.06.31,1c2.33,7.62,4.58,15.36,6.7,23h.44c1.59-7.71,3.3-15.48,5.07-23.11l.25-1.09,3.11,0,.26,22.81H132.4l0,1.34c3.24,0,6.53,0,9.8,0l0-1.34h-2.36L140.06,66l2.48,0,0-1.34c-4.37,0-8.76,0-13.08,0q-.92,4.93-1.79,9.86l-.2,1.15-2.92,0-.27-1.1q-1.18-4.93-2.4-9.86c-4.07.07-8.09.17-12,.29L110,66.4l2.58-.08,1.32,22.36Z"/><path d="M150.35,91.24q.06-2.09.12-4.19l2.56,0q.35-9.76.7-19.53l-2.68,0q.06-2.09.12-4.19,6.5.11,13,.32c3.76.12,6.67.86,8.71,2.19a5.64,5.64,0,0,1,2.74,5.55c-.25,2.93-2.12,4.77-5.56,5.55,3.69,1.44,5.37,3.74,5.1,6.86a7.24,7.24,0,0,1-3.82,5.89c-2.31,1.35-5.43,2-9.39,1.83S154.22,91.3,150.35,91.24Zm12.26-23.68-.43,7.75c1.89.06,3.1-.2,3.65-.77a4.42,4.42,0,0,0,1-2.82,5.41,5.41,0,0,0-.31-2.6,2.24,2.24,0,0,0-1.3-1.2A8.81,8.81,0,0,0,162.62,67.56ZM162,79.11q-.23,4.1-.46,8.21a11.26,11.26,0,0,0,2.67-.16,2.31,2.31,0,0,0,1.47-1.06,5.94,5.94,0,0,0,.66-2.7,5.43,5.43,0,0,0-.35-2.74,2.32,2.32,0,0,0-1.36-1.21A9.93,9.93,0,0,0,162,79.11Z"/><path d="M163,93l-1,0c-3.8-.12-7.69-.21-11.58-.28l-1.44,0,.21-7,2.57,0,.6-16.69-2.67,0,.21-7,1.4,0c4.31.07,8.69.18,13,.32,4,.13,7.17.94,9.44,2.42A7.08,7.08,0,0,1,177,71.51a6.93,6.93,0,0,1-3.56,5.65,7.21,7.21,0,0,1,3.1,6.76,8.62,8.62,0,0,1-4.52,7A17.76,17.76,0,0,1,163,93Zm-11.15-3.11c3.42.06,6.84.15,10.19.25,3.67.12,6.57-.44,8.63-1.64a5.84,5.84,0,0,0,3.12-4.79c.14-1.57-.15-3.83-4.2-5.41l-4.33-1.69,4.53-1c3.73-.84,4.33-2.85,4.46-4.28a4.23,4.23,0,0,0-2.1-4.24c-1.82-1.19-4.51-1.85-8-2-3.84-.12-7.73-.22-11.57-.29l0,1.34,2.69,0-.8,22.37-2.55,0Zm10.37-1.1h-.71l-1.46,0,.61-11,1.38,0a11.1,11.1,0,0,1,3,.42A3.75,3.75,0,0,1,167.24,80a6.67,6.67,0,0,1,.5,3.48,7.18,7.18,0,0,1-.88,3.36,3.75,3.75,0,0,1-2.35,1.68A10.73,10.73,0,0,1,162.19,88.75Zm1.13-8.12L163,85.88a5.47,5.47,0,0,0,.85-.11.9.9,0,0,0,.59-.44,4.57,4.57,0,0,0,.44-2,4.05,4.05,0,0,0-.2-2,.89.89,0,0,0-.54-.5A4.77,4.77,0,0,0,163.31,80.63Zm-.64-3.89h-.53l-1.46,0,.59-10.58,1.38,0a10,10,0,0,1,3,.45,3.67,3.67,0,0,1,2.11,1.92,6.67,6.67,0,0,1,.45,3.31,5.69,5.69,0,0,1-1.34,3.71C166.07,76.35,164.73,76.74,162.68,76.74ZM164,69.1l-.26,4.75a2.22,2.22,0,0,0,1.12-.29,3.07,3.07,0,0,0,.56-1.92,4,4,0,0,0-.18-1.89.82.82,0,0,0-.49-.47A4.09,4.09,0,0,0,164,69.1Z"/><path d="M181.49,92.36l.43-4.17,3.44.2,2.17-19.47-3.6-.21.43-4.17q8.21.45,16.4,1.06l-.58,4.16-3.8-.28-2.55,19.45,3.64.26-.58,4.16Q189.19,92.79,181.49,92.36Z"/><path d="M198.1,94.88l-1.33-.1c-5-.37-10.2-.71-15.36-1l-1.49-.08.73-7,1.35.08,2.1.12L186,70.25,182.36,70l.72-7,1.35.08c5.52.31,11.05.66,16.43,1.06l1.51.11-1,7-1.33-.1L197.61,71l-2.18,16.62,2.14.16,1.51.11Zm-15-3.85c4.23.24,8.46.52,12.6.82l.19-1.34-2.12-.15-1.51-.1L195.14,68l1.33.09,2.48.18.19-1.34c-4.44-.32-9-.62-13.51-.87l-.14,1.34,3.61.21-2.48,22.3-1.35-.08-2.09-.12Z"/><path d="M203.56,93.88l.65-4.16,2.26.19,3.13-19.4-2.36-.2.65-4.16q5.39.45,10.78,1a78.55,78.55,0,0,1,4.19,17.26l.45,0q.86-6.12,1-7L225.39,72l-2.15-.22.8-4.15q4.91.5,9.82,1.06L233,72.84l-2-.23-5,23.68-6.47-.69q-.79-2.9-1.62-5.81-1.11-3.79-2-7.14t-1.55-7l-.48,0A93.68,93.68,0,0,1,212.7,85l-.94,5.4,2,.18L213,94.72Q208.27,94.27,203.56,93.88Z"/><path d="M227.07,97.84l-1.28-.14L219.32,97l-1-.1L218.1,96q-.79-2.9-1.62-5.79c-.78-2.68-1.43-5-2-7.18l0-.1q-.17,1.17-.37,2.33l-.68,3.89,2,.18-1.24,7-1.3-.12q-4.7-.45-9.41-.83l-1.52-.13,1.08-7,2.27.19,2.67-16.59-.81-.07-1.52-.12.21-1.51.85-5.47,1.32.11c3.62.3,7.25.62,10.79,1l.88.08.31.83q1,2.56,1.76,5.36l1.13-5.88,1.29.13q4.92.5,9.84,1.06l1.56.18-1.49,6.93-2-.23Zm-6.48-3.56,4.23.45,5-23.68,2.05.23.29-1.34q-3.47-.39-6.95-.75l-.26,1.34,2.16.22-1.37,6.92c-.13.67-.59,3.88-1,6.94L224.51,86l-2.93-.31-.15-1.1a78.59,78.59,0,0,0-3.8-16.12c-2.82-.27-5.68-.52-8.55-.76L208.87,69l.84.07,1.52.13-3.58,22.21-2.25-.19-.21,1.34,6.62.59.24-1.34-2-.18,1.2-6.92a92.74,92.74,0,0,0,1.13-9.27l.1-1.46,3,.29.2,1c.46,2.41,1,4.75,1.53,6.94s1.18,4.44,2,7.1Q219.91,91.84,220.58,94.28Zm1.48-21.18q.5,1.84.92,3.78l.71-3.61Z"/><path d="M252.62,90.46l-2.37-.33L251.34,86q5.47.76,10.93,1.6a25.22,25.22,0,0,1-2.41,5.93,11.91,11.91,0,0,1-3.29,3.58A11.17,11.17,0,0,1,252.25,99a15,15,0,0,1-5,.1c-3.71-.51-6.33-2.1-7.91-4.8s-1.87-6.28-.83-10.77,2.78-7.93,5.22-10.19a10.23,10.23,0,0,1,8.72-2.72,6.83,6.83,0,0,1,5.12,3.22h.1l.55-2,5.86.86L261.38,82l-5.73-.84a6.49,6.49,0,0,0,0-4,3,3,0,0,0-5.21-.31A31.79,31.79,0,0,0,248,84a63.28,63.28,0,0,0-1.41,6.54,5.67,5.67,0,0,0,.14,3,2,2,0,0,0,1.64,1Q251.33,94.93,252.62,90.46Z"/><path d="M249.51,100.68a18.22,18.22,0,0,1-2.5-.18c-4.14-.57-7.15-2.42-8.94-5.48s-2.1-7-1-11.81,3-8.48,5.64-10.91a11.6,11.6,0,0,1,9.88-3.09,8.48,8.48,0,0,1,4.33,1.8l.21-.78,1.24.18,5.87.86,1.6.24L262.4,83.6l-1.23-.18-5.72-.84-1.55-.22.37-1.52a5.09,5.09,0,0,0,.08-3.13,1.3,1.3,0,0,0-1.16-.82,1.32,1.32,0,0,0-1.53.67c-.4.65-1.1,2.35-2.22,6.75A62.45,62.45,0,0,0,248,90.7a4.51,4.51,0,0,0,0,2.18c.06.12.25.2.57.25s1.24.17,2.06-1.5l-.62-.08-1.59-.22,1.82-6.88,1.25.17c3.73.52,7.41,1.06,11,1.6l1.6.24L263.63,88a26.71,26.71,0,0,1-2.56,6.27,13.37,13.37,0,0,1-3.67,4,12.65,12.65,0,0,1-4.86,2.11A15.26,15.26,0,0,1,249.51,100.68Zm1.24-28.75a8.65,8.65,0,0,0-6.1,2.46c-2.2,2-3.81,5.22-4.8,9.47-.95,4.08-.72,7.35.67,9.73s3.6,3.65,6.88,4.11A13.66,13.66,0,0,0,252,97.6,9.68,9.68,0,0,0,255.74,96a10.55,10.55,0,0,0,2.89-3.15,20.58,20.58,0,0,0,1.78-4c-2.62-.4-5.31-.79-8-1.17L252,88.94l.78.11,1.62.23L254,90.85c-1.35,4.67-3.87,5.34-5.76,5.08a3.35,3.35,0,0,1-2.72-1.78,6.7,6.7,0,0,1-.28-3.83,64,64,0,0,1,1.44-6.7c1-3.92,1.81-6.31,2.55-7.53a4.41,4.41,0,0,1,7.72.48,6.43,6.43,0,0,1,.37,3.41l3,.45,1.87-6.58-3-.44-.55,2-1.24-.18-.19,0-.59-.12-.32-.51A5.41,5.41,0,0,0,252.21,72,10.88,10.88,0,0,0,250.75,71.93Z"/><path d="M19,99.74l-1.17-4.1,2.43-.36L14.88,76.13l-2.54.37-1.17-4.1q5.94-.88,11.9-1.67c4.36-.58,8-.22,10.74,1a8.47,8.47,0,0,1,5.1,6.07c1.27,5.75-2.68,9.12-11.83,10.33l1.54,5.94,2.93-.39,1,4.12Q25.76,98.74,19,99.74Zm4.68-24.83L26,84.06q2.8-.37,3.5-1.71a5,5,0,0,0,.16-3.52C28.92,75.79,26.91,74.48,23.65,74.91Z" fill="#fff"/><path d="M49.91,95.79,49,91.65l3.13-.33L48.29,72,45,72.33l-.86-4.14q8.16-.88,16.35-1.61l.71,4.16-4.1.37,3.51,19.37L66.5,90l-1.38-8.24,6.41-.53L73.42,93.6Q61.65,94.53,49.91,95.79Z" fill="#fff"/><path d="M76.23,69.54l-.57-4.17q6.59-.47,13.18-.83l.45,4.17-1.44.08,1.88,16.91q.33,3,2.87,2.81,2.76-.15,2.45-3.37L93.41,68.5,92,68.57l-.43-4.18q4.93-.26,9.87-.46l.34,4.18L99,68.23l1.45,16.82a6.16,6.16,0,0,1-2.05,5.36A10,10,0,0,1,92,92.75c-3.19.18-5.7-.32-7.55-1.5a7.31,7.31,0,0,1-3.27-5.53L79,69.35Z" fill="#fff"/><path d="M110.22,91.56,110,87.38l2.46-.08-1.15-19.52-2.58.08q-.14-2.09-.27-4.18,7.29-.24,14.58-.35,1.37,5.48,2.67,11h.61q1-5.52,2-11,7.85-.08,15.71,0,0,2.09-.06,4.19l-2.48,0q-.08,9.77-.16,19.54l2.37,0q0,2.09-.06,4.19-6.3-.05-12.6,0,0-2.09-.07-4.19h1.87q-.11-10-.23-20H132q-2.81,12.09-5.29,24.2l-2.67,0q-3.33-12-7-24h-.68q.47,10,.95,20l1.87,0q.09,2.09.18,4.19Q114.81,91.41,110.22,91.56Z" fill="#fff"/><path d="M150.35,91.24q.06-2.09.12-4.19l2.56,0q.35-9.76.7-19.53l-2.68,0q.06-2.09.12-4.19,6.5.11,13,.32c3.76.12,6.67.86,8.71,2.19a5.64,5.64,0,0,1,2.74,5.55c-.25,2.93-2.12,4.77-5.56,5.55,3.69,1.44,5.37,3.74,5.1,6.86a7.24,7.24,0,0,1-3.82,5.89c-2.31,1.35-5.43,2-9.39,1.83S154.22,91.3,150.35,91.24Zm12.26-23.68-.43,7.75c1.89.06,3.1-.2,3.65-.77a4.42,4.42,0,0,0,1-2.82,5.41,5.41,0,0,0-.31-2.6,2.24,2.24,0,0,0-1.3-1.2A8.81,8.81,0,0,0,162.62,67.56ZM162,79.11q-.23,4.1-.46,8.21a11.26,11.26,0,0,0,2.67-.16,2.31,2.31,0,0,0,1.47-1.06,5.94,5.94,0,0,0,.66-2.7,5.43,5.43,0,0,0-.35-2.74,2.32,2.32,0,0,0-1.36-1.21A9.93,9.93,0,0,0,162,79.11Z" fill="#fff"/><path d="M181.49,92.36l.43-4.17,3.44.2,2.17-19.47-3.6-.21.43-4.17q8.21.45,16.4,1.06l-.58,4.16-3.8-.28-2.55,19.45,3.64.26-.58,4.16Q189.19,92.79,181.49,92.36Z" fill="#fff"/><path d="M203.56,93.88l.65-4.16,2.26.19,3.13-19.4-2.36-.2.65-4.16q5.39.45,10.78,1a78.55,78.55,0,0,1,4.19,17.26l.45,0q.86-6.12,1-7L225.39,72l-2.15-.22.8-4.15q4.91.5,9.82,1.06L233,72.84l-2-.23-5,23.68-6.47-.69q-.79-2.9-1.62-5.81-1.11-3.79-2-7.14t-1.55-7l-.48,0A93.68,93.68,0,0,1,212.7,85l-.94,5.4,2,.18L213,94.72Q208.27,94.27,203.56,93.88Z" fill="#fff"/><path d="M252.62,90.46l-2.37-.33L251.34,86q5.47.76,10.93,1.6a25.22,25.22,0,0,1-2.41,5.93,11.91,11.91,0,0,1-3.29,3.58A11.17,11.17,0,0,1,252.25,99a15,15,0,0,1-5,.1c-3.71-.51-6.33-2.1-7.91-4.8s-1.87-6.28-.83-10.77,2.78-7.93,5.22-10.19a10.23,10.23,0,0,1,8.72-2.72,6.83,6.83,0,0,1,5.12,3.22h.1l.55-2,5.86.86L261.38,82l-5.73-.84a6.49,6.49,0,0,0,0-4,3,3,0,0,0-5.21-.31A31.79,31.79,0,0,0,248,84a63.28,63.28,0,0,0-1.41,6.54,5.67,5.67,0,0,0,.14,3,2,2,0,0,0,1.64,1Q251.33,94.93,252.62,90.46Z" fill="#fff"/><path d="M8.9,55,7.84,49.26l2.29-.51L5.27,21.61l-2.38.53L1.83,16.38q5.49-1.24,11-2.37A142.18,142.18,0,0,1,24.09,35.73l.46-.09q-1.7-8.51-1.9-9.78l-1.19-7.6-2.22.43-.92-5.79q5-1,10.07-1.89l.84,5.8-2.06.37,5,33.46q-3.36.61-6.72,1.27-2-3.62-4-7.23-2.67-4.71-4.9-8.91t-4.43-8.9l-.5.1q1.65,6.6,2.74,13l1.3,7.57,2-.41,1,5.78Q13.72,53.93,8.9,55Z"/><path d="M7.64,56.92,6,48.06l1.47-.34.82-.19L4,23.51l-.77.17L1.63,24,0,15.17l1.48-.33c3.64-.82,7.35-1.62,11-2.38l1.06-.22.59.91Q16,15.93,17.7,19l-1.17-7.37L18,11.35c3.37-.66,6.77-1.3,10.1-1.9l1.61-.29L31,18.1,29,18.47l5,33.45-1.5.27q-3.35.61-6.7,1.26l-1.13.22-.56-1q-2-3.62-4-7.22c-1.72-3-3.24-5.79-4.63-8.39q.25,1.34.48,2.67l1,6,2-.41,1.5,8.9-1.49.31c-3.18.66-6.43,1.36-9.63,2.08Zm2-6.45.48,2.65c2.2-.49,4.41-1,6.59-1.43L16.3,49l-2,.42-1.57-9.19C12,36,11.11,31.65,10,27.36l-.4-1.58L13,25.07l.53,1.13c1.44,3.09,2.92,6.06,4.4,8.83s3,5.64,4.88,8.87q1.75,3.12,3.47,6.24l4.11-.78-5-33.46,2.07-.38-.39-2.68c-2.3.42-4.62.85-6.94,1.3l.42,2.67.62-.12,1.61-.31,1.44,9.22c.16,1,1.15,6,1.89,9.72l.31,1.56-3.22.62-.56-1.17A143.45,143.45,0,0,0,12.09,15.77c-2.81.58-5.64,1.19-8.43,1.81l.48,2.65.78-.17,1.61-.36L12,50,10,50.39Zm8.83-30q1.24,2.26,2.45,4.67l-.78-5-.61.12Z"/><path d="M38.8,49.44,38,43.64,41.54,43,37.83,15.67l-3.7.63-.82-5.81Q41.7,9,50.11,7.81l.68,5.83-3.92.58,3.37,27.42L54,41.08l.68,5.83Q46.74,48.06,38.8,49.44Z"/><path d="M37.46,51.28l-1.26-8.93,1.5-.26,2.06-.36L36.48,17.5l-2.08.36-1.61.28L31.54,9.19,33,8.93c5.54-1,11.21-1.87,16.83-2.68L51.49,6l1.05,9L51,15.21l-2.39.35,3,24.28,2.18-.32,1.6-.23,1.05,9-1.52.22c-5.21.76-10.54,1.6-15.85,2.53Zm2.3-6.34.38,2.68c4.29-.73,8.58-1.42,12.81-2l-.32-2.69-2.16.32-1.61.24L45.11,12.89l1.52-.23L49,12.3l-.32-2.69c-4.56.67-9.13,1.4-13.63,2.17l.38,2.68,2.1-.36,1.61-.27,4.14,30.49-1.51.25Z"/><path d="M71.2,30.68q3.47.69,6.92,1.41a16.53,16.53,0,0,1-2.68,9.45,9.2,9.2,0,0,1-6.63,4c-3.54.42-6.59-1-9.2-4.33S55.3,33,54.56,26.38c-.69-6.11-.24-11.05,1.41-14.81s4-5.83,7-6.2C65.07,5.11,67,6,68.77,8h.11L68.64,5.3l6.11-.65L75.83,17.9q-3,.31-6,.64-1.13-7.22-4.1-6.87-2,.23-2.06,3.21a92.92,92.92,0,0,0,.63,10.18A73.64,73.64,0,0,0,66,36.52c.55,1.78,1.46,2.59,2.75,2.44q1.52-.18,2-2.19A22.81,22.81,0,0,0,71.2,30.68Z"/><path d="M67.62,47.23c-3.53,0-6.64-1.68-9.25-5-2.8-3.56-4.61-8.83-5.38-15.67-.73-6.49-.23-11.6,1.53-15.62,1.88-4.3,4.66-6.7,8.27-7.13A7.1,7.1,0,0,1,67,4.56l-.06-.65,1.54-.17,6.13-.65,1.6-.16,1.35,16.39L76,19.47q-3,.3-6,.64l-1.5.17-.23-1.49c-.62-4-1.62-5.63-2.36-5.55-.15,0-.62.07-.67,1.68a92.33,92.33,0,0,0,.62,10A73.26,73.26,0,0,0,67.5,36.06c.43,1.41.87,1.35,1.06,1.34s.45-.05.71-1a21.53,21.53,0,0,0,.35-5.64l-.06-2,1.95.38q3.48.69,6.94,1.42l1.28.27,0,1.31a18.13,18.13,0,0,1-3,10.34A10.78,10.78,0,0,1,69,47.15,11.63,11.63,0,0,1,67.62,47.23Zm-4-40.32a4.07,4.07,0,0,0-.5,0c-2.46.3-4.34,2-5.76,5.26-1.51,3.45-1.94,8.17-1.29,14,.71,6.24,2.3,11,4.73,14.07,2.25,2.87,4.79,4.09,7.77,3.74a7.64,7.64,0,0,0,5.54-3.38,14.14,14.14,0,0,0,2.32-7.26l-3.68-.75a19.11,19.11,0,0,1-.48,4.57c-.7,2.65-2.43,3.24-3.39,3.35-1.2.15-3.39-.13-4.44-3.54-.59-1.89-1.16-5.75-1.76-11.77a93.48,93.48,0,0,1-.64-10.38c.11-3.91,2.45-4.61,3.45-4.73,3.7-.42,5,3.94,5.59,6.71l3-.32-.83-10.1-3,.32.24,2.64-2.4.33-.6-.62A5.26,5.26,0,0,0,63.67,6.91Z"/><path d="M81.58,43.56q-.23-2.93-.45-5.86l2.68-.25-2-27.58L79,10.13l-.45-5.86q7.16-.68,14.33-1.19Q93.06,6,93.23,9l-2.35.17,1.67,27.61,1.79-.13q.17,2.93.34,5.87Q88.12,42.94,81.58,43.56Zm15.66-1.27q-.16-2.93-.32-5.87l1.85-.12q-3.06-7.21-6.23-14.4,2.82-6.66,5.75-13.29l-2.38.15q-.16-2.93-.31-5.87,5.63-.38,11.26-.64l.22,5.87-2.29.11q-2.37,5.17-4.66,10.36,3.72,8.58,7.28,17.21l2.26-.11q.11,2.94.21,5.87Q103.55,41.87,97.23,42.29Z"/><path d="M80.12,45.29l-.69-9L81,36.13,82.12,36,80.34,11.6l-1.18.11-1.6.15-.69-9,1.54-.15C83.2,2.25,88,1.85,92.78,1.51l1.6-.11h0l1.11-.07c3.68-.25,7.47-.46,11.29-.65L108.37.6l.34,9-2.89.14c-1.34,2.95-2.68,5.91-4,8.84,2.25,5.19,4.46,10.42,6.59,15.57l2.74-.13.32,9-1.56.07c-4.17.19-8.41.42-12.6.71L94.79,44c-4.39.32-8.79.69-13.06,1.09Zm2.69-6.16L83,41.84c3.28-.3,6.63-.58,10-.83l-.16-2.71-1.79.14L89.2,7.67l2.36-.17-.16-2.71C87.71,5,84,5.36,80.25,5.7l.21,2.71,1.2-.11,1.6-.14L85.5,38.89,84,39ZM98.58,37.9l.15,2.71c3.17-.2,6.36-.38,9.51-.53l-.1-2.72-1.77.08-.42-1c-2.34-5.67-4.79-11.45-7.27-17.18l-.28-.63.28-.63c1.52-3.43,3.09-6.92,4.67-10.38l.4-.87,1.69-.09-.1-2.72c-2.72.14-5.43.29-8.08.46l.15,2.71.79,0,2.59-.16L99.73,9.25c-1.85,4.18-3.69,8.43-5.47,12.64,2,4.56,4,9.2,6,13.79l.87,2.05Zm-5-9.59L94,35,95.25,35h0l.57,0h0l.62,0Q95,31.59,93.62,28.3ZM92.55,10.59,92.93,17q1.42-3.3,2.86-6.6l-1.38.09h0Z"/><path d="M127.77,41.07q0-2.94-.07-5.88l2.46,0Q132,21.3,134,7.46h-2.42q0-2.94,0-5.88,10.66-.08,21.31.23-.07,2.94-.14,5.88l-2.55-.07q1.91,13.88,3.65,27.78l2.31.08q-.09,2.94-.17,5.88-6.24-.22-12.49-.31,0-2.94.07-5.88l2.31,0q-.39-3.69-.79-7.38-3,0-6.1-.06-.45,3.68-.88,7.36h2.25q0,2.94,0,5.88Q134,41,127.77,41.07Zm11.82-18.22,4.9.05q-.88-8.21-1.81-16.42h-1Q140.6,14.66,139.59,22.85Z"/><path d="M157.52,43l-1.59-.06c-4.2-.15-8.39-.25-12.46-.3l-1.58,0,.1-9,2.11,0q-.22-2.11-.45-4.21l-3.28,0q-.25,2.1-.5,4.2h2.06l-.06,9H140.3c-4.19,0-8.4,0-12.51,0l-1.58,0-.1-9,1.57,0,1.1,0C129.87,25.5,131,17.26,132.2,9H130l0-9h1.58c7.08-.05,14.28,0,21.37.23l1.57,0-.21,9-1.59,0-.69,0c1.11,8.17,2.2,16.44,3.23,24.62l2.53.09Zm-12.43-3.5c3.07,0,6.21.13,9.36.23l.08-2.72-2.06-.07-.19-1.34c-1.16-9.23-2.38-18.57-3.65-27.76L148.39,6l1.85,0,1,0,.06-2.72c-6-.16-12.1-.22-18.11-.19V5.89h2.67l-.26,1.81c-1.35,9.25-2.65,18.57-3.87,27.68l-.18,1.36H129.3l0,2.72c3.11,0,6.26,0,9.41,0l0-2.72h-2.43l.21-1.76q.44-3.68.88-7.36l.17-1.4H139q3.06,0,6.12.06l1.39,0,.15,1.39q.4,3.69.79,7.38l.19,1.78-2.51,0Zm1.16-15-1.78,0-4.89-.05h-1.77l.22-1.76q1-8.2,2.06-16.39l.18-1.4,3.84,0,.16,1.38q.93,8.21,1.81,16.43Zm-4.88-3.22h1.36q-.31-2.92-.64-5.83Q141.73,18.37,141.37,21.29Z"/><path d="M159.46,41.43q.09-2.94.19-5.88l3.27.14q.5-13.83,1-27.65l-3.4-.14Q160.61,5,160.7,2q8.42.32,16.83.88-.16,2.93-.32,5.87L173,8.51l-1.34,27.63q3.08.18,6.16.4l.67-11.68q3.34.24,6.69.51-.59,8.77-1.17,17.53Q171.74,41.9,159.46,41.43Z"/><path d="M185.47,44.61l-1.6-.13c-8.11-.66-16.35-1.16-24.47-1.47l-1.57-.06.29-9,1.59.06,1.69.07.89-24.49-1.82-.07-1.57-.06.28-9,1.59.06c5.63.22,11.31.51,16.87.88l1.56.1-.49,9-1.6-.11-2.61-.17-1.19,24.48,3,.2L177,23.18l1.6.11q3.35.24,6.71.51l1.55.13Zm-24.38-4.69c7.13.29,14.33.72,21.44,1.29l1-14.38L180,26.55l-.67,11.67-1.6-.11q-3.07-.21-6.14-.4L170,37.62l1.5-30.79,1.59.09,2.63.16.15-2.71c-4.51-.29-9.08-.53-13.64-.71l-.09,2.72,1.84.08,1.56.07-1.12,30.81-1.59-.07-1.67-.07Z"/><path d="M188.48,43.12q.21-2.93.41-5.86l3.26.29q1-13.79,2.07-27.58l-3.39-.3q.21-2.93.41-5.86,8.4.73,16.8,1.69l-.55,5.85-4.2-.47-2.42,27.54q3.07.33,6.15.69l1.12-11.63q3.34.4,6.67.83L213,45.77Q200.74,44.18,188.48,43.12Z"/><path d="M214.37,47.54l-1.6-.21c-8.15-1.06-16.36-1.95-24.42-2.64l-1.55-.13.64-9,1.6.14,1.67.15,1.84-24.43-1.83-.16-1.55-.13.63-9,1.6.14c5.57.48,11.24,1.05,16.84,1.69l1.54.18-.84,9-1.6-.18-2.59-.29L202.59,37l3,.34,1.12-11.63,1.6.19q3.34.4,6.69.83l1.53.2Zm-24.2-5.86c7.08.63,14.26,1.41,21.4,2.31l1.52-14.32-3.52-.44-1.12,11.63-1.6-.19q-3.06-.36-6.13-.69l-1.54-.16,2.69-30.69,1.6.17,2.61.29.25-2.7c-4.54-.51-9.1-1-13.62-1.37l-.19,2.71,1.85.17,1.55.14-2.31,30.72-1.88-.17L190.36,39Z"/><path d="M216.37,46.09l.64-5.84,3.2.44,3.14-27.45L220,12.78l.64-5.84q13,1.74,25.9,4.05l-1.8,12.37q-3.36-.6-6.73-1.16l.9-6.58q-3.26-.55-6.53-1.05l-1.31,10.35,5,.8-.78,5.82-4.95-.79L228.91,42q3.14.49,6.28,1l.94-6.93q3.3.55,6.6,1.14l-1.86,12.72Q228.65,47.74,216.37,46.09Z"/><path d="M242.21,51.77l-1.6-.29c-8.05-1.44-16.27-2.73-24.44-3.83l-1.53-.21,1-9,1.6.22,1.6.22,2.78-24.31-1.79-.24-1.53-.21,1-9,1.6.22c8.63,1.16,17.37,2.53,26,4.06l1.51.27-2.26,15.5-1.61-.29q-3.36-.6-6.71-1.16l-1.51-.25.9-6.57-3.4-.55-.92,7.21,3.48.56,1.51.25-1.2,8.95L235,33.1l-3.33-.54-1,8.1,3.18.51.94-6.93,1.6.27q3.31.55,6.62,1.14l1.51.27Zm-24.1-7c7.17,1,14.37,2.11,21.45,3.36L241,38.5l-3.47-.6-.94,6.93-1.6-.27q-3.13-.52-6.26-1l-1.52-.24L229,28.94l1.6.25,3.36.53L234.3,27l-3.46-.55-1.52-.24L231,12.77l1.6.25q3.27.51,6.55,1.06l1.51.25-.89,6.58,3.63.63,1.35-9.24c-7.53-1.33-15.16-2.52-22.72-3.56l-.3,2.7,1.81.25,1.53.21-3.5,30.59-1.6-.23L218.41,42Z"/><path d="M245.25,50.55l.88-5.8,2.3.43,4.21-27.28-2.39-.45.87-5.8q5.51,1,11,2.14a152,152,0,0,1,3.51,24.76l.46.1q1.16-8.62,1.38-9.89l1.35-7.57-2.22-.48,1-5.77q5,1.07,10,2.23l-1.09,5.75-2.05-.47-6.17,33.21q-3.35-.76-6.7-1.48Q261,50,260.23,45.85q-1-5.46-1.7-10.26t-1.26-10.07l-.5-.1q-.59,6.82-1.64,13.25l-1.23,7.59,2,.4-1,5.78Q250.09,51.44,245.25,50.55Z"/><path d="M269.6,57.58l-1.6-.37q-3.34-.76-6.68-1.48l-1-.23-.18-1.06q-.69-4.17-1.41-8.34c-.61-3.43-1.15-6.67-1.6-9.63q-.18,1.22-.38,2.43l-1,6.08.5.1,1.49.3-1.47,8.9-1.6-.33c-3.19-.65-6.43-1.28-9.65-1.87l-1.5-.28,1.35-8.92,1.6.3.7.13,3.73-24.16L250,19l-1.5-.28,1.35-8.93,1.6.3c3.64.67,7.36,1.4,11,2.15l1,.2.23,1q.78,3.3,1.41,6.87l1.27-7.25,1.6.34c3.35.72,6.73,1.47,10.06,2.24l1.48.34-1.67,8.86-2-.47ZM263,52.88l4.06.9,6.17-33.21,2.06.47.5-2.65c-2.3-.53-4.62-1-6.92-1.54l-.46,2.66,2.22.48L269,29.05c-.14.79-.58,3.91-1.37,9.83l-.23,1.71-3.29-.73-.08-1.19a153.17,153.17,0,0,0-3.24-23.52c-2.8-.57-5.61-1.12-8.39-1.64l-.4,2.67.89.17,1.5.28L249.73,47l-1.61-.31-.68-.13-.4,2.67c2.2.41,4.41.84,6.6,1.28l.44-2.67-.48-.1-1.5-.3,1.48-9.09c.69-4.24,1.24-8.66,1.63-13.13l.15-1.74,3.37.66.12,1.16c.35,3.47.78,6.83,1.25,10s1,6.55,1.69,10.22Q262.42,49.23,263,52.88Zm2.36-30.8q.42,2.55.76,5.23l.87-4.88Z"/><path d="M8.9,55,7.84,49.26l2.29-.51L5.27,21.61l-2.38.53L1.83,16.38q5.49-1.24,11-2.37A142.18,142.18,0,0,1,24.09,35.73l.46-.09q-1.7-8.51-1.9-9.78l-1.19-7.6-2.22.43-.92-5.79q5-1,10.07-1.89l.84,5.8-2.06.37,5,33.46q-3.36.61-6.72,1.27-2-3.62-4-7.23-2.67-4.71-4.9-8.91t-4.43-8.9l-.5.1q1.65,6.6,2.74,13l1.3,7.57,2-.41,1,5.78Q13.72,53.93,8.9,55Z" fill="#fff"/><path d="M38.8,49.44,38,43.64,41.54,43,37.83,15.67l-3.7.63-.82-5.81Q41.7,9,50.11,7.81l.68,5.83-3.92.58,3.37,27.42L54,41.08l.68,5.83Q46.74,48.06,38.8,49.44Z" fill="#fff"/><path d="M71.2,30.68q3.47.69,6.92,1.41a16.53,16.53,0,0,1-2.68,9.45,9.2,9.2,0,0,1-6.63,4c-3.54.42-6.59-1-9.2-4.33S55.3,33,54.56,26.38c-.69-6.11-.24-11.05,1.41-14.81s4-5.83,7-6.2C65.07,5.11,67,6,68.77,8h.11L68.64,5.3l6.11-.65L75.83,17.9q-3,.31-6,.64-1.13-7.22-4.1-6.87-2,.23-2.06,3.21a92.92,92.92,0,0,0,.63,10.18A73.64,73.64,0,0,0,66,36.52c.55,1.78,1.46,2.59,2.75,2.44q1.52-.18,2-2.19A22.81,22.81,0,0,0,71.2,30.68Z" fill="#fff"/><path d="M81.58,43.56q-.23-2.93-.45-5.86l2.68-.25-2-27.58L79,10.13l-.45-5.86q7.16-.68,14.33-1.19Q93.06,6,93.23,9l-2.35.17,1.67,27.61,1.79-.13q.17,2.93.34,5.87Q88.12,42.94,81.58,43.56Zm15.66-1.27q-.16-2.93-.32-5.87l1.85-.12q-3.06-7.21-6.23-14.4,2.82-6.66,5.75-13.29l-2.38.15q-.16-2.93-.31-5.87,5.63-.38,11.26-.64l.22,5.87-2.29.11q-2.37,5.17-4.66,10.36,3.72,8.58,7.28,17.21l2.26-.11q.11,2.94.21,5.87Q103.55,41.87,97.23,42.29Z" fill="#fff"/><path d="M127.77,41.07q0-2.94-.07-5.88l2.46,0Q132,21.3,134,7.46h-2.42q0-2.94,0-5.88,10.66-.08,21.31.23-.07,2.94-.14,5.88l-2.55-.07q1.91,13.88,3.65,27.78l2.31.08q-.09,2.94-.17,5.88-6.24-.22-12.49-.31,0-2.94.07-5.88l2.31,0q-.39-3.69-.79-7.38-3,0-6.1-.06-.45,3.68-.88,7.36h2.25q0,2.94,0,5.88Q134,41,127.77,41.07Zm11.82-18.22,4.9.05q-.88-8.21-1.81-16.42h-1Q140.6,14.66,139.59,22.85Z" fill="#fff"/><path d="M159.46,41.43q.09-2.94.19-5.88l3.27.14q.5-13.83,1-27.65l-3.4-.14Q160.61,5,160.7,2q8.42.32,16.83.88-.16,2.93-.32,5.87L173,8.51l-1.34,27.63q3.08.18,6.16.4l.67-11.68q3.34.24,6.69.51-.59,8.77-1.17,17.53Q171.74,41.9,159.46,41.43Z" fill="#fff"/><path d="M188.48,43.12q.21-2.93.41-5.86l3.26.29q1-13.79,2.07-27.58l-3.39-.3q.21-2.93.41-5.86,8.4.73,16.8,1.69l-.55,5.85-4.2-.47-2.42,27.54q3.07.33,6.15.69l1.12-11.63q3.34.4,6.67.83L213,45.77Q200.74,44.18,188.48,43.12Z" fill="#fff"/><path d="M216.37,46.09l.64-5.84,3.2.44,3.14-27.45L220,12.78l.64-5.84q13,1.74,25.9,4.05l-1.8,12.37q-3.36-.6-6.73-1.16l.9-6.58q-3.26-.55-6.53-1.05l-1.31,10.35,5,.8-.78,5.82-4.95-.79L228.91,42q3.14.49,6.28,1l.94-6.93q3.3.55,6.6,1.14l-1.86,12.72Q228.65,47.74,216.37,46.09Z" fill="#fff"/><path d="M245.25,50.55l.88-5.8,2.3.43,4.21-27.28-2.39-.45.87-5.8q5.51,1,11,2.14a152,152,0,0,1,3.51,24.76l.46.1q1.16-8.62,1.38-9.89l1.35-7.57-2.22-.48,1-5.77q5,1.07,10,2.23l-1.09,5.75-2.05-.47-6.17,33.21q-3.35-.76-6.7-1.48Q261,50,260.23,45.85q-1-5.46-1.7-10.26t-1.26-10.07l-.5-.1q-.59,6.82-1.64,13.25l-1.23,7.59,2,.4-1,5.78Q250.09,51.44,245.25,50.55Z" fill="#fff"/></svg>