<svg xmlns="http://www.w3.org/2000/svg" viewBox="0 0 105.88 152.15"><title>Asset 1</title><path d="M90.21,147.38c4.55-1.24,5.22-4.12,5.22-4.12L101.91,116c2.2-7.15-3.85-8.8-3.85-8.8L84.58,99.53c.09-.93.14-1.86.14-2.81a29.42,29.42,0,0,0-58.84,0c0,.95,0,1.88.14,2.81l-11.72,7.64s-6,1.65-3.85,8.8l5.47,27.29s.82,2.89,5.22,4.12C21.14,147.38,60.7,150.25,90.21,147.38ZM78.37,97.58S59.7,104.22,58.12,105a3,3,0,0,1-2.5.28l-22.53-6a1.88,1.88,0,0,1-1.28-2.07,23.49,23.49,0,1,1,47-.43s0,0,0,.05,0,.25,0,.38V97A.6.6,0,0,1,78.37,97.58Z" fill="#356a7c"/><path d="M59.27,152.15c-20.47,0-38.12-1.25-38.39-1.27l-.35,0-.34-.1c-6.12-1.72-7.51-6.05-7.65-6.54l-.06-.26L7,116.82a10.72,10.72,0,0,1,.58-8.45A9.93,9.93,0,0,1,12.74,104l9.65-6.29q0-.5,0-1a32.92,32.92,0,0,1,65.84,0q0,.42,0,.84L99.5,104a10,10,0,0,1,5.24,4.41,10.74,10.74,0,0,1,.56,8.51l-6.45,27.19c-.11.49-1.32,5-7.71,6.69l-.58.11C80.66,151.83,69.61,152.15,59.27,152.15Zm-37.5-8.23c4.1.28,40.48,2.62,67.79,0a3.92,3.92,0,0,0,2.51-1.64l6.5-27.35c.73-2.38.23-3.86-1.49-4.41l-.42-.12-.31-.2-15.45-8.76L81,100a4.12,4.12,0,0,1-1.51.93c-8.83,3.14-18.79,6.74-19.88,7.24a6.56,6.56,0,0,1-5.08.46L31.74,102.5a5.82,5.82,0,0,1-2.06-1.42l0,.23-14,9.09-.53.14c-1.65.53-2.16,2-1.42,4.39l.09.34,5.4,27A4.23,4.23,0,0,0,21.77,143.92Zm70.29-1.59a.73.73,0,0,0,0,.14ZM56.38,101.9Zm-21-5.66,21.16,5.62.12-.05C58,101.14,69.43,97.05,75.18,95a20,20,0,0,0-39.85,1.24Zm45.12,1,.75.11s0-.09,0-.14Z"/><path d="M90.21,147.38c4.55-1.24,5.22-4.12,5.22-4.12L101.91,116c2.2-7.15-3.85-8.8-3.85-8.8L84.58,99.53c.09-.93.14-1.86.14-2.81a29.42,29.42,0,0,0-58.84,0c0,.95,0,1.88.14,2.81l-11.72,7.64s-6,1.65-3.85,8.8l5.47,27.29s.82,2.89,5.22,4.12A462.35,462.35,0,0,0,90.21,147.38ZM78.37,97.58S59.7,104.22,58.12,105a3,3,0,0,1-2.5.28l-22.53-6a1.88,1.88,0,0,1-1.28-2.07,23.49,23.49,0,1,1,47-.43s0,0,0,.05,0,.25,0,.38V97A.6.6,0,0,1,78.37,97.58Z" fill="#356a7c"/><path d="M40.3,98.46s10.54-21,7-31.38-3.51-11.19-3.09-11.6,1.19-5.18,1.19-5.18L30.56,37.47s-1.55.42-.43,1.33,8.46,7.75,8.46,7.75A2.94,2.94,0,0,1,38.06,50l-1.24,1.23A2.14,2.14,0,0,1,34,51l-9.78-8.14-1,1.15s-.53,1.18-1.1.54-4.78-4-4.78-4l-.91.84a.38.38,0,0,1-.58.19c-.44-.22-6.66-6.14-6.66-6.14a1.1,1.1,0,0,1-.6-1c.06-.66.81-5.38.81-5.38L1,20.43a3.27,3.27,0,0,1-.9-1.35,49.62,49.62,0,0,1,0-6.29,1.91,1.91,0,0,1,.64-1.67L8.82,2.29a1.47,1.47,0,0,1,1.12-.78c.74,0,9-1.48,9-1.48a1.23,1.23,0,0,1,1,.21C20.47.62,22.88,3,22.88,3s.51.52.26.8S11.92,16.22,11.92,16.22s-.37.33.14.85,3.72,3.86,3.72,3.86.45.74,1,.29S27,10.41,27,10.41s.27-.64.72-.3,1.82,1.6,1.82,1.6.35.43.3.72,2.82,9.7,2.82,9.7L54.45,42.7l2.87-3.4s2.39-1.92,3.73-1.44,3.11,2.55,3.56,5.05c0,0,1.68-1.28,2.89-.67a16.39,16.39,0,0,1,2.76,2s1,.86.9,1.63a7.29,7.29,0,0,0,0,1.57s1.07-.62,1.76-.21a19.22,19.22,0,0,1,2.18,1.94A3.83,3.83,0,0,1,75.85,51a13.09,13.09,0,0,1-.21,1.89,1.46,1.46,0,0,1,1.54,0A15.87,15.87,0,0,1,79,54.65a6,6,0,0,1,1,3.05C80,59.19,77.66,63,77.66,63l25,22.17s3.48,3.53,1.81,6.4-4.42,2.4-6.43,1.27S72.83,73,72.83,73s-3.91,5.66-7.88,7.36l-.79.53,3,18.65-10.27,5.1L38.31,100"/><path d="M9.7,27.7,1.84,19.36s-.35.18-.34-.85.08-6.05.08-6.05-.12-.16.64-1,7.45-8,7.45-8,.5-.78,1.2-.73,7.58-.9,7.58-.9a.68.68,0,0,1,.7.25c.33.37,1.49,1.43,1.49,1.43s.55.44.35.64L8.71,15.82s-.58.33-.33.66S14.28,23,14.28,23s.16.49-.13.66a16.83,16.83,0,0,0-1.54,1.6L8.25,23l3.27,3.32s.12.37,0,.56-1.31,1.25-1.31,1.25" fill="#ce2020"/><path d="M16,23.72l-4.67,4.6s-.52.1-.5.57,0,5.07,0,5.07a1.46,1.46,0,0,0,.51.93c.47.4,4.2,3.84,4.2,3.84a.69.69,0,0,0,1,.23c.64-.35,8-7.48,8-7.48s.31-.72.89,0,19.8,17,19.8,17,.43.48.74,0,1.21-1.76,1.21-1.76.19-.27-.18-.56S33.19,34.63,33.19,34.63s.34-1.07,1.46-.13L47.74,45.44a.87.87,0,0,0,.82,0,9.17,9.17,0,0,0,1.24-.81s.17-.12-.06-.39S29.87,26.95,29.87,26.95a.94.94,0,0,0-1.26,1l.7,2.79s.06.39-.41.2l-2.15-2.38A2.27,2.27,0,0,1,26.47,27c.19-.68,1.54-2.83,3.37-1.65L51.15,43.71a1,1,0,0,0,.88.19A6.47,6.47,0,0,0,53.44,43L31.05,22.18l-.42-1.3s.21-.82-.35-.64-3.06,1.13-3.06,1.13l1.07-5.56s-.14-.64-.55-.23l-7.24,7s-.64-.27-.39-.56S27,15.35,27,15.35s.29-.37.17-.53-1.45-1.31-1.45-1.31L17,22.22l1.44.83" fill="#ce2020"/><path d="M73.82,71.88l.91-1L92,84.85,75.28,70s.38-.95.75-1.07S95.16,84.38,95.16,84.38,95,85.66,94.44,86s1.64.84,2.6-.44-1.75-3.27-1.75-3.27L77.56,67s.79-1.77,1.41-1.14S102.18,87,102.18,87s1.47,2.4,0,4.12a4.48,4.48,0,0,1-4.61.13" fill="#ce2020"/><path d="M19.34,39.42,24,34.67s.31-.72.72-.3S27.7,36.9,27.7,36.9s.24.33.12.58-5.18,4.91-5.18,4.91-.33.25-.6.06-2.72-2.67-2.72-2.67Z" fill="#ce2020"/><path d="M28,39.13s-1,.65-.32,1.34,8.11,7,8.11,7,.49.66.34,1.05.68.19.7-.16.46-.9-.65-1.78-8-7.26-8-7.26" fill="#ce2020"/><path d="M65.13,99.36s-1.74-19-2.84-18.7c1-.41,4.88-3.51,5.33-5.21s-.28-2.55-.32-2.09-1.51,3.23-2,2.92c1.94-2.18.29-6.12-.42-7.17s-1.09-.83-1.09-.83l-2.25,4.3c-.32-7.29-8-15.21-8-15.21L53.11,52c2.23-.31,6.17-5,6-6.76S57.83,43,57.5,43.63s-9.59,5-9.59,5-1.85,5.67-2.44,7.23.32,1,.32,1,2.2,9.28,3.73,14.81-6.76,25.41-6.76,25.41-.69.65-.11,1,13.48,3.69,13.82,3.8S65.13,99.36,65.13,99.36Z" fill="#ffbf5e"/><path d="M57,42.41l1.75-3.24s1.63-.87,2.6,0,2,2.71,1.65,3.37a57.54,57.54,0,0,0-2.41,6.68,30.54,30.54,0,0,1-1,6c-.33.45-2.36,1.18-3.32.12a3.3,3.3,0,0,1-.93-3.05c.29-.57,3.17-2.88,4-4.94a7,7,0,0,0,.36-4s-.34-.85-.86-.75" fill="#ffbf5e"/><path d="M61.48,56.92l.27-6.73a2,2,0,0,1,.63-2.05c1-1.09,3.56-4.86,3.56-4.86a1.78,1.78,0,0,1,1.73.26c1,.65,2.13,1.5,2.13,1.5s.46,1.42.21,1.71-4.26,5.64-4.26,5.64-.14,5.46-.43,6S62.53,60.14,61.48,56.92Z" fill="#ffbf5e"/><path d="M66.25,61.05l.6-6.15a3.29,3.29,0,0,1,.88-1.72A42.16,42.16,0,0,0,71.09,49a1.66,1.66,0,0,1,2-.5A10.13,10.13,0,0,1,75,51s.22.89-.07,1.26S71.05,58.12,71,58.41A39.1,39.1,0,0,1,69.89,63C69.62,63.38,67.2,64.58,66.25,61.05Z" fill="#ffbf5e"/><path d="M71.37,65.62c-.18-.19-1-1.32-.44-2.19a54,54,0,0,0,3.38-6c.5-1.4,1.51-3.37,2.43-3.26s2.57,3.07,2.51,4.12-3,5.7-3.59,6.44S73.21,67.49,71.37,65.62Z" fill="#ffbf5e"/><path d="M66.19,77.73a9.21,9.21,0,0,1-8.49,3.09,8.53,8.53,0,0,0,5.75.69" fill="#090a0a"/><path d="M60.7,82.11l.09,18.6a21.91,21.91,0,0,0,2.4-.69C63.45,99.85,60.79,82.79,60.7,82.11Z"/><path d="M25.82,95.8a23.19,23.19,0,0,0,.82,6.51L23.8,99.65" fill="#090a0a"/><path d="M84.66,95.8a23.18,23.18,0,0,1-.83,6.51l2.84-2.66" fill="#090a0a"/><path d="M26,126.28H21.82V129h4.71v2.13H19.23V119.67h7.05v2.13H21.82v2.38H26Z" fill="#fff"/><path d="M29.16,128.45a6.54,6.54,0,0,0,2.87.71c1.19,0,1.82-.49,1.82-1.24s-.54-1.12-1.92-1.6c-1.9-.68-3.16-1.73-3.16-3.4,0-2,1.65-3.43,4.33-3.43a6.7,6.7,0,0,1,2.92.58l-.58,2.07a5.36,5.36,0,0,0-2.38-.54c-1.12,0-1.67.53-1.67,1.1,0,.73.63,1.05,2.13,1.61,2,.75,3,1.8,3,3.42,0,1.92-1.46,3.55-4.61,3.55a7.47,7.47,0,0,1-3.25-.71Z" fill="#fff"/><path d="M41.21,121.84H38.12v-2.18h8.81v2.18H43.8v9.28H41.21Z" fill="#fff"/><path d="M47.8,129.75a1.52,1.52,0,1,1,1.5,1.56A1.49,1.49,0,0,1,47.8,129.75Z" fill="#fff"/><path d="M53.28,131.12v-1.56l1.41-1.27c2.43-2.18,3.6-3.42,3.62-4.71,0-.9-.53-1.61-1.8-1.61a4.11,4.11,0,0,0-2.36.9L53.41,121a6.06,6.06,0,0,1,3.6-1.14c2.52,0,3.88,1.46,3.88,3.45s-1.33,3.35-2.94,4.78l-1,.85v0h4.18v2.13Z" fill="#fff"/><path d="M71.54,125.55c0,3.4-1.38,5.76-4.18,5.76s-4.11-2.57-4.13-5.69,1.34-5.73,4.2-5.73S71.54,122.52,71.54,125.55Zm-5.73.07c0,2.53.61,3.74,1.6,3.74S69,128.1,69,125.58s-.53-3.74-1.56-3.74S65.81,123,65.81,125.61Z" fill="#fff"/><path d="M82,125.55c0,3.4-1.38,5.76-4.18,5.76s-4.11-2.57-4.13-5.69,1.34-5.73,4.2-5.73S82,122.52,82,125.55Zm-5.73.07c0,2.53.61,3.74,1.6,3.74s1.55-1.26,1.55-3.77-.53-3.74-1.56-3.74S76.22,123,76.22,125.61Z" fill="#fff"/><path d="M84.86,129.27a8.09,8.09,0,0,0,1.12,0,4.33,4.33,0,0,0,2.18-.68,3.33,3.33,0,0,0,1.39-2.06l0,0a3,3,0,0,1-2.23.8,3.31,3.31,0,0,1-3.43-3.45,4,4,0,0,1,4.16-4c2.84,0,4.18,2.18,4.18,4.76a6.64,6.64,0,0,1-1.94,5.1A6.57,6.57,0,0,1,86,131.27a8.89,8.89,0,0,1-1.17,0Zm1.56-5.56A1.58,1.58,0,0,0,88,125.48a1.63,1.63,0,0,0,1.44-.71,1.36,1.36,0,0,0,.12-.66c0-1.17-.43-2.33-1.63-2.33C87.05,121.77,86.42,122.55,86.42,123.71Z" fill="#fff"/></svg>